<svg xmlns="http://www.w3.org/2000/svg" viewBox="0 0 288.98 316.5"><defs><style>.cls-1{opacity:0.25;}.cls-2{fill:#fff;}</style></defs><title>Asset 14</title><g id="Layer_2" data-name="Layer 2"><g id="Layer_1-2" data-name="Layer 1"><g class="cls-1"><rect class="cls-2" x="41.28" y="34.4" width="27.52" height="55.04"/><rect class="cls-2" x="75.68" y="61.92" width="55.04" height="27.52"/><rect class="cls-2" x="41.28" y="96.33" width="55.04" height="27.52"/><rect class="cls-2" x="75.68" width="27.52" height="55.04"/><rect class="cls-2" x="110.09" y="27.52" width="55.04" height="27.52"/><rect class="cls-2" x="103.21" y="96.33" width="27.52" height="55.04"/><rect class="cls-2" x="137.61" y="123.85" width="55.04" height="27.52"/><rect class="cls-2" x="103.21" y="158.25" width="55.04" height="27.52"/><rect class="cls-2" x="137.61" y="61.92" width="27.52" height="55.04"/><rect class="cls-2" x="172.01" y="89.45" width="55.04" height="27.52"/><rect class="cls-2" x="172.01" y="27.52" width="27.52" height="55.04"/><rect class="cls-2" x="68.8" y="130.73" width="27.52" height="55.04"/><rect class="cls-2" x="68.8" y="192.65" width="55.04" height="27.52"/><rect class="cls-2" x="34.4" y="165.13" width="27.52" height="55.04"/><rect class="cls-2" x="34.4" y="227.05" width="55.04" height="27.52"/><rect class="cls-2" x="6.88" y="130.73" width="55.04" height="27.52"/><rect class="cls-2" x="233.93" y="89.45" width="27.52" height="55.04"/><rect class="cls-2" x="233.93" y="151.37" width="55.04" height="27.52"/><rect class="cls-2" x="199.53" y="123.85" width="27.52" height="55.04"/><rect class="cls-2" x="199.53" y="185.77" width="55.04" height="27.52"/><rect class="cls-2" x="165.13" y="158.25" width="27.52" height="55.04"/><rect class="cls-2" x="165.13" y="220.17" width="55.04" height="27.52"/><rect class="cls-2" x="130.73" y="192.65" width="27.52" height="55.04"/><rect class="cls-2" x="130.73" y="254.58" width="55.04" height="27.52"/><rect class="cls-2" x="96.33" y="227.05" width="27.52" height="55.04"/><rect class="cls-2" x="96.33" y="288.98" width="55.04" height="27.52"/><rect class="cls-2" x="61.92" y="261.46" width="27.52" height="55.04"/><rect class="cls-2" y="199.53" width="27.52" height="55.04"/><rect class="cls-2" y="261.46" width="55.04" height="27.52"/></g></g></g></svg>