<?xml version="1.0" encoding="utf-8"?>
<!-- Generator: Adobe Illustrator 21.0.2, SVG Export Plug-In . SVG Version: 6.00 Build 0)  -->
<svg version="1.1" id="Layer_1" xmlns="http://www.w3.org/2000/svg" xmlns:xlink="http://www.w3.org/1999/xlink" x="0px" y="0px"
	 viewBox="0 0 1055 157" style="enable-background:new 0 0 1055 157;" xml:space="preserve">
<style type="text/css">
	.st0{fill:#D9D8D8;}
	.st1{fill:#43A349;}
	.st2{fill:#43A349;stroke:#FFFFFF;stroke-width:2;stroke-miterlimit:10;}
	.st3{fill:#E6E6E6;}
	.st4{fill:#E6E6E6;stroke:#FFFFFF;stroke-width:2;stroke-miterlimit:10;}
</style>
<g>
	<g>
		<g>
			<path class="st0" d="M65.1,72.7H23.2c-5.8,0-10.5-4.7-10.5-10.5V20.4c0-5.8,4.7-10.5,10.5-10.5h41.9c5.8,0,10.5,4.7,10.5,10.5
				v41.9C75.6,68,70.9,72.7,65.1,72.7z"/>
			<path class="st0" d="M135.8,72.7H94c-5.8,0-10.5-4.7-10.5-10.5V20.4c0-5.8,4.7-10.5,10.5-10.5h41.9c5.8,0,10.5,4.7,10.5,10.5
				v41.9C146.3,68,141.6,72.7,135.8,72.7z"/>
			<path class="st0" d="M135.8,144.7H94c-5.8,0-10.5-4.7-10.5-10.5V92.3c0-5.8,4.7-10.5,10.5-10.5h41.9c5.8,0,10.5,4.7,10.5,10.5
				v41.9C146.3,139.9,141.6,144.7,135.8,144.7z"/>
			<path class="st0" d="M65.1,144.7H23.2c-5.8,0-10.5-4.7-10.5-10.5V92.3c0-5.8,4.7-10.5,10.5-10.5h41.9c5.8,0,10.5,4.7,10.5,10.5
				v41.9C75.6,139.9,70.9,144.7,65.1,144.7z"/>
		</g>
		<g>
			<path class="st1" d="M43,148.3l9.7-13.3c0,0-11-21.8-7.3-47.2c4.8-32.6,39.9-42.3,53.2-55.6s21.8-25.4,21.8-25.4
				s12.1,43.5-2.4,81C101.7,129.7,55,136.2,55,136.2l-7.3,12.1H43z"/>
			<path class="st2" d="M59.9,121.7c0,0,2.4-21.8,10.9-35.1s26.6-27.8,32.6-36.3c6-8.5,13.3-29,13.3-29"/>
		</g>
	</g>
	<g>
		<path class="st3" d="M188,64.8c-18.4,0-27.2-11.8-27.2-27.1c0-12.8,8.8-27.1,26.9-27.1c6.5,0,11.4,0.7,18.2,2.4
			c0.2,3.8,0.8,7.9,1.8,11.8c-0.2,0.2-1,0.3-1.5,0.3c-0.7,0-1.4-0.2-1.6-1c-1.9-7.2-6.2-10.1-14.8-10.1c-13.8,0-20.5,9.4-20.5,22.2
			c0,14.9,9.3,25.4,21.4,25.4c3.1,0,6.5-0.5,8.7-1.1V47.9c0-2.9-1.5-3.8-5.6-4.3c-0.8-0.1-1.1-0.9-1.1-1.5c0-0.3,0.1-1,0.2-1.3
			c3.1,0.2,7.3,0.4,10.1,0.4c2.8,0,6.8-0.2,9.5-0.4c0.1,0.4,0.2,1,0.2,1.3c0,1-0.5,1.4-1,1.4c-3.5,0.4-4.6,1.3-4.6,3.5v14.3
			c0,1-0.2,1.6-2.7,2C199.5,64.2,194.7,64.8,188,64.8z"/>
		<path class="st3" d="M247.5,44.6h-18l-5.2,13c-0.2,0.6-0.4,1.3-0.4,1.6c0,1.1,1.5,1.9,4.9,2.4c0.7,0.1,1,0.6,1,1.3
			c0,0.3-0.1,0.9-0.2,1.3c-2.9-0.2-6.3-0.4-9.3-0.4c-2.2,0-4.3,0.1-6.8,0.4c-0.1-0.3-0.2-1-0.2-1.3c0-0.7,0.2-1.4,1-1.5
			c3.3-0.6,4.8-1.2,5.6-2.9l19.4-46.7c0.4-1,1-1.4,1.5-1.4c0.3,0,0.6,0.1,1,0.2l19.5,48.2c0.6,1.5,3.3,2.3,5.5,2.7
			c0.6,0.2,1,0.5,1,1.5c0,0.3-0.1,0.9-0.2,1.3c-3.4-0.2-6.8-0.4-9.7-0.4c-3,0-7.3,0.2-10.4,0.4c-0.1-0.4-0.2-1-0.2-1.3
			c0-1,0.5-1.3,0.8-1.3c2.7-0.5,4.7-1.1,4.7-2.5c0-0.2-0.1-0.6-0.3-1.2L247.5,44.6z M246.2,41.3l-7.5-19.7l-7.8,19.7H246.2z"/>
		<path class="st3" d="M292,40.3h-6V58c0,2.3,2.2,3,6.7,3.5c0.6,0.1,1,0.6,1,1.4c0,0.3-0.1,1-0.2,1.4c-2.9-0.2-7.4-0.4-11.4-0.4
			c-2.7,0-6.8,0.2-10,0.4c-0.1-0.4-0.2-1-0.2-1.3c0-0.8,0.4-1.2,0.9-1.3c4-0.6,5.6-1.4,5.6-3.5v-41c0-2-1.3-2.9-5.7-3.5
			c-0.6-0.1-0.8-0.6-0.8-1.4c0-0.4,0.1-0.9,0.2-1.3c3.2,0.2,6.8,0.4,9.9,0.4h10.9c11.5,0,17.6,5.6,17.6,14.2
			c0,4.7-3.1,10.8-10.3,13.5l13.5,18.7c2,2.8,4.7,3.5,6.8,4.1c0.4,0.1,0.7,0.5,0.7,1.1c0,0.4-0.1,1-0.2,1.5
			c-2.4-0.2-6.4-0.4-9.4-0.4c-2.3,0-4.7-2.2-6.7-5.2L292,40.3z M290.4,37c7.5,0,11.8-2.8,11.8-10.7c0-6.6-3.1-11.5-12-11.5h-4V37
			H290.4z"/>
		<path class="st3" d="M350.8,63.8h-16.5c-2.7,0-6.6,0.2-9.9,0.4c-0.1-0.4-0.2-1-0.2-1.3c0-0.9,0.4-1.2,0.9-1.3
			c3.9-1,5.6-1.5,5.6-3.5v-41c0-2.1-1.4-2.7-5.6-3.5c-0.6-0.1-0.9-0.7-0.9-1.4c0-0.3,0.1-0.9,0.2-1.3c4.4,0.3,6.5,0.4,9.8,0.4h16.5
			c18.1,0,27.1,11.8,27.1,26.2C377.9,50.3,369.2,63.8,350.8,63.8z M345.3,14.8h-7v42.9c0,2.2,1.8,2.9,8.7,2.9
			c16.5,0,22.5-8.2,22.5-21.3C369.5,22.7,361,14.8,345.3,14.8z"/>
		<path class="st3" d="M399.3,14.8v20.6h12.6c2.2,0,2.9-2.4,3.4-5.4c0.2-0.7,0.7-1,1.4-1c0.3,0,1,0.2,1.3,0.2
			c-0.2,2.3-0.4,5.7-0.4,8c0,1.9,0.1,4.5,0.4,7.8c-0.3,0.1-0.9,0.2-1.2,0.2c-0.9,0-1.4-0.2-1.5-1c-0.5-3-1.3-5.4-3.4-5.4h-12.6v19
			c0,2.3,2.7,2.8,9.3,2.8h4.4c6.3,0,8.9-3.8,11.5-8.9c0.2-0.4,0.6-0.6,1.2-0.6c0.6,0,1.2,0.4,1.7,0.7c-2,4.1-2.4,12.4-4.6,12.4
			c-1.6,0-7-0.4-9.8-0.4h-17.6c-3.1,0-6.8,0.2-10.1,0.4c-0.1-0.4-0.2-1-0.2-1.3c0-0.8,0.3-1.2,0.8-1.3c4-0.7,5.7-1.4,5.7-3.5v-41
			c0-2.1-1.2-2.7-5.7-3.5c-0.6-0.2-0.8-0.6-0.8-1.4c0-0.5,0.1-0.9,0.2-1.3c4.6,0.3,7.5,0.4,10,0.4h15.9c4.8,0,8.6-0.5,9.8-0.5
			c2.7,0,1.4,8.1,3.8,12c-0.4,0.3-0.8,0.5-1.4,0.5c-0.6,0-1.1-0.2-1.4-0.7c-2.5-5.6-4.3-8-10.8-8H399.3z"/>
		<path class="st3" d="M475.6,51V17.3c0-2.3-1.6-3.1-5.6-3.6c-0.7-0.1-0.9-0.6-0.9-1.4c0-0.3,0.1-0.9,0.2-1.3
			c2.7,0.2,5.6,0.4,8.1,0.4c2.3,0,5.1-0.2,7.5-0.4c0.1,0.4,0.2,1,0.2,1.3c0,0.9-0.2,1.3-0.8,1.4c-3.6,0.5-4.8,1.4-4.8,3.5v47.4
			c-0.2,0.1-0.9,0.2-1.2,0.2c-0.7,0-1.3-0.3-2.2-1.5l-32.7-43.1v37.9c0,2.1,1.2,2.7,5.5,3.5c0.5,0.1,0.8,0.4,0.8,1.3
			c0,0.3-0.1,0.9-0.2,1.3c-2.7-0.2-5.6-0.4-7.9-0.4c-2.2,0-5.4,0.2-7.7,0.4c-0.1-0.4-0.2-1-0.2-1.3c0-0.8,0.4-1.2,0.9-1.3
			c3.9-0.7,4.9-1.4,4.9-3.5V16.8c0-1.7-0.9-2.5-4.8-3.1c-0.6-0.1-0.9-0.6-0.9-1.4c0-0.3,0.2-1.3,0.2-1.3s5.4,0.4,8.4,0.4
			c3.1,0,3.7,0.2,4.3,1L475.6,51z"/>
		<path class="st3" d="M542.2,24.3c-1.4,0-1.9-0.6-2.3-1.3c-2.7-6-6.3-8.8-12.9-8.8c-5.2,0-9.5,2.9-9.5,7.7c0,5.1,4.4,7.8,12.6,11.1
			c10.2,4.1,15.1,8.8,15.1,16c0,8.8-5.1,15.7-17.8,15.7c-6.6,0-12.2-1.5-15.9-3.8c-0.3-4.5-1-8.6-1.9-12.8c0.4-0.2,0.9-0.2,1.4-0.2
			c1.3,0,1.9,0.6,2.4,1.9c2.7,7.7,6.4,11.3,14.1,11.3c6.9,0,10.3-4.3,10.3-9.1c0-5.6-3.9-8.4-11-11c-9.3-3.4-15.3-7.1-15.3-16.1
			c0-8,6-14.3,15.7-14.3c5,0,9.3,0.9,15.1,3.1c0.2,3.2,0.6,7.2,1.2,10.4C543,24.2,542.6,24.3,542.2,24.3z"/>
		<path class="st3" d="M581.5,44.6h-18l-5.2,13c-0.2,0.6-0.4,1.3-0.4,1.6c0,1.1,1.5,1.9,4.9,2.4c0.7,0.1,1,0.6,1,1.3
			c0,0.3-0.1,0.9-0.2,1.3c-2.9-0.2-6.3-0.4-9.3-0.4c-2.2,0-4.3,0.1-6.8,0.4c-0.1-0.3-0.2-1-0.2-1.3c0-0.7,0.2-1.4,1-1.5
			c3.3-0.6,4.8-1.2,5.6-2.9l19.4-46.7c0.4-1,1-1.4,1.5-1.4c0.3,0,0.6,0.1,1,0.2l19.5,48.2c0.6,1.5,3.3,2.3,5.5,2.7
			c0.6,0.2,1,0.5,1,1.5c0,0.3-0.1,0.9-0.2,1.3c-3.4-0.2-6.8-0.4-9.7-0.4c-3,0-7.3,0.2-10.4,0.4c-0.1-0.4-0.2-1-0.2-1.3
			c0-1,0.5-1.3,0.8-1.3c2.7-0.5,4.7-1.1,4.7-2.5c0-0.2-0.1-0.6-0.3-1.2L581.5,44.6z M580.2,41.3l-7.5-19.7l-7.8,19.7H580.2z"/>
		<path class="st3" d="M647.6,51V17.3c0-2.3-1.6-3.1-5.6-3.6c-0.7-0.1-0.9-0.6-0.9-1.4c0-0.3,0.1-0.9,0.2-1.3
			c2.7,0.2,5.6,0.4,8.1,0.4c2.3,0,5.1-0.2,7.5-0.4c0.1,0.4,0.2,1,0.2,1.3c0,0.9-0.2,1.3-0.8,1.4c-3.6,0.5-4.8,1.4-4.8,3.5v47.4
			c-0.2,0.1-0.9,0.2-1.2,0.2c-0.7,0-1.3-0.3-2.2-1.5l-32.7-43.1v37.9c0,2.1,1.2,2.7,5.5,3.5c0.5,0.1,0.8,0.4,0.8,1.3
			c0,0.3-0.1,0.9-0.2,1.3c-2.7-0.2-5.6-0.4-7.9-0.4c-2.2,0-5.4,0.2-7.7,0.4c-0.1-0.4-0.2-1-0.2-1.3c0-0.8,0.4-1.2,0.9-1.3
			c3.9-0.7,4.9-1.4,4.9-3.5V16.8c0-1.7-0.9-2.5-4.8-3.1c-0.6-0.1-0.9-0.6-0.9-1.4c0-0.3,0.2-1.3,0.2-1.3s5.4,0.4,8.4,0.4
			c3.1,0,3.7,0.2,4.4,1L647.6,51z"/>
		<path class="st3" d="M663.2,37.6c0-12.7,8.8-27.1,26.9-27.1c7.1,0,11.5,0.7,17.1,2.3c0.1,2.9,0.8,7.4,1.9,11.7
			c-0.3,0.2-0.9,0.3-1.3,0.3c-0.8,0-1.6-0.1-1.9-1c-1.9-7.1-5.7-9.8-13.7-9.8c-13.3,0-20.5,8.9-20.5,22.2c0,14.9,9.6,25.4,21.1,25.4
			c9.3,0,11.9-3.7,14.5-10.1c0.4-0.9,1-1.2,1.9-1.2c0.5,0,1.2,0.2,1.5,0.4c-1.3,3.7-2.7,8.5-3.5,13c-5.2,0.9-10.6,1.4-17.1,1.4
			C671.9,64.8,663.2,52.9,663.2,37.6z"/>
		<path class="st3" d="M743.3,14.8v43c0,2.4,1.9,3.2,6.7,3.8c0.5,0,0.9,0.5,0.9,1.3c0,0.3-0.1,1-0.2,1.4c-3.4-0.2-7.3-0.4-11.2-0.4
			c-3.8,0-7.9,0.2-11.3,0.4c-0.1-0.4-0.2-1-0.2-1.4c0-0.7,0.3-1.2,0.8-1.3c4.8-0.6,6.8-1.4,6.8-3.8v-43h-8.3c-6.5,0-8.4,2.5-10.9,8
			c-0.2,0.6-0.8,0.7-1.2,0.7c-0.6,0-1.2-0.2-1.5-0.5c2.3-7.7,1.7-12,3.8-12c1.6,0,5.7,0.5,8.5,0.5H753c2.7,0,6.8-0.5,8.5-0.5
			c2.2,0,1.5,4.6,3.8,12c-0.5,0.2-1,0.5-1.6,0.5c-0.4,0-1-0.2-1.3-0.7c-2.4-5.5-4.3-8-10.7-8H743.3z"/>
		<path class="st3" d="M817.8,44.2c0,12.2-5.1,20.5-21.1,20.5c-18.5,0-21.6-10.1-21.6-20.2V17.2c0-2.2-1.2-2.9-5.4-3.5
			c-0.6-0.1-0.8-0.6-0.8-1.4c0-0.3,0.1-0.9,0.2-1.3c3.2,0.2,6.8,0.4,9.8,0.4c2.8,0,6.9-0.2,10.1-0.4c0.1,0.4,0.2,1,0.2,1.3
			c0,0.7-0.2,1.3-0.8,1.4c-4.1,0.5-5.7,1.3-5.7,3.5v25.6c0,11.1,4,17.3,14.7,17.3c12,0,16.6-5.1,16.6-17.6V17.2c0-2.2-1.4-3-5.6-3.5
			c-0.6-0.1-0.9-0.6-0.9-1.4c0-0.3,0.1-0.9,0.2-1.3c3.1,0.2,6.3,0.4,8.4,0.4c2.6,0,5.2-0.2,7.8-0.4c0.1,0.4,0.2,1,0.2,1.3
			c0,0.6-0.3,1.3-0.9,1.4c-3.9,0.4-5.3,1.3-5.3,3.5V44.2z"/>
		<path class="st3" d="M856.2,44.6h-18l-5.2,13c-0.2,0.6-0.4,1.3-0.4,1.6c0,1.1,1.5,1.9,4.9,2.4c0.7,0.1,1,0.6,1,1.3
			c0,0.3-0.1,0.9-0.2,1.3c-2.9-0.2-6.3-0.4-9.3-0.4c-2.2,0-4.4,0.1-6.8,0.4c-0.1-0.3-0.2-1-0.2-1.3c0-0.7,0.2-1.4,1-1.5
			c3.3-0.6,4.8-1.2,5.6-2.9L848,11.9c0.4-1,1-1.4,1.5-1.4c0.3,0,0.6,0.1,1,0.2L870,58.8c0.6,1.5,3.3,2.3,5.5,2.7
			c0.6,0.2,1,0.5,1,1.5c0,0.3-0.1,0.9-0.2,1.3c-3.4-0.2-6.8-0.4-9.7-0.4c-3,0-7.3,0.2-10.4,0.4c-0.1-0.4-0.2-1-0.2-1.3
			c0-1,0.5-1.3,0.8-1.3c2.7-0.5,4.7-1.1,4.7-2.5c0-0.2-0.1-0.6-0.3-1.2L856.2,44.6z M854.9,41.3l-7.5-19.7l-7.8,19.7H854.9z"/>
		<path class="st3" d="M900.7,40.3h-6V58c0,2.3,2.2,3,6.7,3.5c0.6,0.1,1,0.6,1,1.4c0,0.3-0.1,1-0.2,1.4c-2.9-0.2-7.4-0.4-11.4-0.4
			c-2.7,0-6.8,0.2-10,0.4c-0.1-0.4-0.2-1-0.2-1.3c0-0.8,0.4-1.2,0.9-1.3c4-0.6,5.6-1.4,5.6-3.5v-41c0-2-1.3-2.9-5.7-3.5
			c-0.6-0.1-0.8-0.6-0.8-1.4c0-0.4,0.1-0.9,0.2-1.3c3.2,0.2,6.8,0.4,9.9,0.4h10.9c11.5,0,17.6,5.6,17.6,14.2
			c0,4.7-3.1,10.8-10.3,13.5l13.5,18.7c2,2.8,4.7,3.5,6.8,4.1c0.4,0.1,0.7,0.5,0.7,1.1c0,0.4-0.1,1-0.2,1.5
			c-2.4-0.2-6.4-0.4-9.4-0.4c-2.3,0-4.7-2.2-6.7-5.2L900.7,40.3z M899,37c7.5,0,11.8-2.8,11.8-10.7c0-6.6-3.1-11.5-12-11.5h-4V37
			H899z"/>
		<path class="st3" d="M946.6,58.2c0,2.1,1.2,2.7,5.3,3.5c0.5,0.1,0.8,0.4,0.8,1.3c0,0.3-0.1,0.9-0.2,1.3c-3.3-0.2-6.8-0.4-9.7-0.4
			c-2.9,0-6.6,0.2-9.7,0.4c-0.1-0.4-0.2-1-0.2-1.3c0-0.9,0.3-1.2,0.8-1.3c4-0.7,5.3-1.4,5.3-3.5v-41c0-2.2-1.2-2.8-5.3-3.5
			c-0.6-0.1-0.8-0.7-0.8-1.4c0-0.3,0.1-0.9,0.2-1.3c3.2,0.2,6.9,0.4,9.7,0.4c2.7,0,6.4-0.2,9.7-0.4c0.1,0.4,0.2,1,0.2,1.3
			c0,0.9-0.3,1.3-0.8,1.4c-4.1,0.6-5.3,1.4-5.3,3.5V58.2z"/>
		<path class="st3" d="M974.3,14.8v20.6h12.6c2.2,0,2.9-2.4,3.4-5.4c0.2-0.7,0.7-1,1.5-1c0.3,0,1,0.2,1.3,0.2
			c-0.2,2.3-0.4,5.7-0.4,8c0,1.9,0.1,4.5,0.4,7.8c-0.3,0.1-0.9,0.2-1.2,0.2c-0.9,0-1.4-0.2-1.5-1c-0.5-3-1.3-5.4-3.4-5.4h-12.6v19
			c0,2.3,2.7,2.8,9.3,2.8h4.4c6.3,0,8.9-3.8,11.5-8.9c0.2-0.4,0.6-0.6,1.2-0.6c0.6,0,1.2,0.4,1.7,0.7c-2,4.1-2.4,12.4-4.6,12.4
			c-1.6,0-7-0.4-9.8-0.4h-17.6c-3.1,0-6.8,0.2-10.1,0.4c-0.1-0.4-0.2-1-0.2-1.3c0-0.8,0.3-1.2,0.8-1.3c4-0.7,5.7-1.4,5.7-3.5v-41
			c0-2.1-1.2-2.7-5.7-3.5c-0.6-0.2-0.8-0.6-0.8-1.4c0-0.5,0.1-0.9,0.2-1.3c4.6,0.3,7.5,0.4,10,0.4h15.9c4.8,0,8.6-0.5,9.8-0.5
			c2.7,0,1.5,8.1,3.8,12c-0.4,0.3-0.8,0.5-1.5,0.5c-0.6,0-1.1-0.2-1.4-0.7c-2.5-5.6-4.3-8-10.8-8H974.3z"/>
		<path class="st3" d="M1042.2,24.3c-1.4,0-1.9-0.6-2.3-1.3c-2.7-6-6.3-8.8-12.9-8.8c-5.2,0-9.5,2.9-9.5,7.7
			c0,5.1,4.3,7.8,12.6,11.1c10.2,4.1,15.1,8.8,15.1,16c0,8.8-5.1,15.7-17.8,15.7c-6.6,0-12.2-1.5-15.9-3.8c-0.3-4.5-1-8.6-1.9-12.8
			c0.4-0.2,0.9-0.2,1.4-0.2c1.3,0,1.9,0.6,2.4,1.9c2.7,7.7,6.4,11.3,14.1,11.3c6.9,0,10.3-4.3,10.3-9.1c0-5.6-3.9-8.4-11-11
			c-9.3-3.4-15.3-7.1-15.3-16.1c0-8,6-14.3,15.7-14.3c5,0,9.3,0.9,15.1,3.1c0.2,3.2,0.6,7.2,1.2,10.4
			C1043,24.2,1042.6,24.3,1042.2,24.3z"/>
	</g>
	<g>
		<path class="st3" d="M171,103.1v-14h2.3v12.1h5.9v2H171z"/>
		<path class="st3" d="M223.8,103.1l-1.4-3.9H217l-1.4,3.9h-2.4l5.2-14.1h2.5l5.2,14.1H223.8z M221.7,97.2l-1.3-3.8
			c-0.1-0.3-0.2-0.7-0.4-1.2c-0.2-0.5-0.3-1-0.4-1.2c-0.2,0.8-0.4,1.6-0.8,2.6l-1.3,3.7H221.7z"/>
		<path class="st3" d="M273.1,103.1h-2.8l-6.9-11.2h-0.1l0,0.6c0.1,1.2,0.1,2.3,0.1,3.3v7.3h-2.1v-14h2.8l6.9,11.1h0.1
			c0-0.1,0-0.7-0.1-1.6s-0.1-1.6-0.1-2.2v-7.3h2.1V103.1z"/>
		<path class="st3" d="M321.6,96c0,2.3-0.6,4.1-1.9,5.3s-3.1,1.8-5.6,1.8h-3.9v-14h4.3c2.2,0,4,0.6,5.2,1.8
			C321,92.1,321.6,93.8,321.6,96z M319.2,96c0-3.4-1.6-5-4.7-5h-2v10.2h1.6C317.5,101.2,319.2,99.5,319.2,96z"/>
		<path class="st3" d="M366.1,99.3c0,1.2-0.5,2.2-1.4,2.9c-0.9,0.7-2.1,1.1-3.7,1.1s-2.9-0.2-3.9-0.7v-2.2c0.6,0.3,1.3,0.5,2,0.7
			s1.4,0.3,2,0.3c0.9,0,1.6-0.2,2-0.5c0.4-0.3,0.6-0.8,0.6-1.4c0-0.5-0.2-1-0.6-1.3c-0.4-0.4-1.2-0.8-2.5-1.3
			c-1.3-0.5-2.2-1.1-2.7-1.8s-0.8-1.5-0.8-2.4c0-1.2,0.4-2.1,1.2-2.8c0.8-0.7,1.9-1,3.3-1c1.3,0,2.7,0.3,4,0.9l-0.7,1.9
			c-1.2-0.5-2.4-0.8-3.3-0.8c-0.7,0-1.3,0.2-1.7,0.5c-0.4,0.3-0.6,0.8-0.6,1.3c0,0.4,0.1,0.7,0.2,0.9c0.2,0.3,0.4,0.5,0.8,0.7
			c0.4,0.2,1,0.5,1.9,0.9c1,0.4,1.8,0.8,2.3,1.2c0.5,0.4,0.8,0.8,1.1,1.3C366,98.1,366.1,98.7,366.1,99.3z"/>
		<path class="st3" d="M408.2,90.8c-1.3,0-2.4,0.5-3.1,1.4s-1.1,2.2-1.1,3.9c0,1.7,0.4,3,1.1,3.9s1.8,1.3,3.2,1.3
			c0.6,0,1.2-0.1,1.7-0.2c0.6-0.1,1.1-0.3,1.7-0.5v2c-1.1,0.4-2.3,0.6-3.7,0.6c-2.1,0-3.6-0.6-4.7-1.9s-1.7-3-1.7-5.3
			c0-1.5,0.3-2.7,0.8-3.8c0.5-1.1,1.3-1.9,2.3-2.5c1-0.6,2.2-0.9,3.6-0.9c1.4,0,2.8,0.3,4,0.9l-0.8,1.9c-0.5-0.2-1-0.4-1.5-0.6
			C409.4,90.9,408.8,90.8,408.2,90.8z"/>
		<path class="st3" d="M456.8,103.1l-1.4-3.9H450l-1.4,3.9h-2.4l5.2-14.1h2.5l5.2,14.1H456.8z M454.8,97.2l-1.3-3.8
			c-0.1-0.3-0.2-0.7-0.4-1.2c-0.2-0.5-0.3-1-0.3-1.2c-0.2,0.8-0.4,1.6-0.8,2.6l-1.3,3.7H454.8z"/>
		<path class="st3" d="M503.8,93.3c0,1.5-0.5,2.6-1.4,3.4s-2.3,1.2-4.1,1.2h-1.5v5.2h-2.3v-14h4c1.8,0,3.1,0.4,3.9,1.1
			C503.3,90.9,503.8,91.9,503.8,93.3z M496.8,95.9h1.2c1.2,0,2-0.2,2.6-0.6s0.8-1,0.8-1.9c0-0.8-0.2-1.4-0.7-1.8
			c-0.5-0.4-1.3-0.6-2.3-0.6h-1.6V95.9z"/>
		<path class="st3" d="M540,103.1v-14h2.3v14H540z"/>
		<path class="st3" d="M591.1,103.1h-2.8l-6.9-11.2h-0.1l0,0.6c0.1,1.2,0.1,2.3,0.1,3.3v7.3h-2.1v-14h2.8l6.9,11.1h0.1
			c0-0.1,0-0.7-0.1-1.6c0-0.9-0.1-1.6-0.1-2.2v-7.3h2.1V103.1z"/>
		<path class="st3" d="M633.9,95.5h5.2v7c-0.8,0.3-1.7,0.5-2.4,0.6s-1.6,0.2-2.5,0.2c-2.1,0-3.8-0.6-4.9-1.9s-1.7-3-1.7-5.3
			c0-2.3,0.6-4,1.9-5.3c1.3-1.3,3.1-1.9,5.4-1.9c1.5,0,2.9,0.3,4.2,0.8l-0.8,1.9c-1.1-0.5-2.3-0.8-3.4-0.8c-1.5,0-2.7,0.5-3.5,1.4
			c-0.9,0.9-1.3,2.2-1.3,3.9c0,1.7,0.4,3,1.2,3.9c0.8,0.9,1.9,1.3,3.4,1.3c0.7,0,1.5-0.1,2.4-0.3v-3.6h-2.9V95.5z"/>
		<path class="st3" d="M713.4,99.4c0-0.8,0.2-1.6,0.6-2.2c0.4-0.6,1.1-1.2,2.2-1.9c-0.6-0.7-1-1.3-1.2-1.8s-0.3-1-0.3-1.5
			c0-1,0.3-1.7,1-2.3s1.6-0.8,2.8-0.8c1.1,0,2,0.3,2.7,0.8c0.6,0.5,1,1.3,1,2.2c0,0.7-0.2,1.4-0.6,2s-1.2,1.2-2.2,1.8l3.3,3.2
			c0.5-0.7,1-1.7,1.3-3h2.3c-0.4,1.8-1.2,3.3-2.1,4.4l2.9,2.8h-2.9l-1.4-1.4c-0.7,0.5-1.3,0.9-2.1,1.2c-0.7,0.3-1.6,0.4-2.5,0.4
			c-1.5,0-2.6-0.3-3.5-1S713.4,100.6,713.4,99.4z M718.2,101.4c1.2,0,2.2-0.3,3-1l-3.7-3.6c-0.7,0.4-1.1,0.8-1.4,1.2
			c-0.3,0.4-0.4,0.8-0.4,1.3c0,0.6,0.2,1.1,0.7,1.5S717.5,101.4,718.2,101.4z M716.8,92.1c0,0.4,0.1,0.8,0.3,1.1
			c0.2,0.4,0.5,0.7,0.9,1.1c0.7-0.4,1.2-0.8,1.5-1.1c0.3-0.4,0.4-0.8,0.4-1.2c0-0.4-0.1-0.7-0.4-1c-0.3-0.3-0.6-0.4-1.1-0.4
			c-0.5,0-0.9,0.1-1.2,0.4C717,91.3,716.8,91.7,716.8,92.1z"/>
		<path class="st3" d="M812.2,96c0,2.3-0.6,4.1-1.9,5.3c-1.3,1.2-3.1,1.8-5.6,1.8h-3.9v-14h4.3c2.2,0,4,0.6,5.2,1.8
			C811.6,92.1,812.2,93.8,812.2,96z M809.8,96c0-3.4-1.6-5-4.7-5h-2v10.2h1.6C808.1,101.2,809.8,99.5,809.8,96z"/>
		<path class="st3" d="M856.5,103.1h-7.9v-14h7.9V91h-5.6v3.8h5.3v1.9h-5.3v4.4h5.6V103.1z"/>
		<path class="st3" d="M901.1,99.3c0,1.2-0.5,2.2-1.4,2.9c-0.9,0.7-2.1,1.1-3.7,1.1c-1.6,0-2.9-0.2-3.9-0.7v-2.2
			c0.6,0.3,1.3,0.5,2,0.7s1.4,0.3,2,0.3c0.9,0,1.6-0.2,2-0.5c0.4-0.3,0.6-0.8,0.6-1.4c0-0.5-0.2-1-0.6-1.3c-0.4-0.4-1.2-0.8-2.5-1.3
			c-1.3-0.5-2.2-1.1-2.7-1.8s-0.8-1.5-0.8-2.4c0-1.2,0.4-2.1,1.2-2.8c0.8-0.7,1.9-1,3.3-1c1.3,0,2.7,0.3,4,0.9l-0.7,1.9
			c-1.2-0.5-2.4-0.8-3.3-0.8c-0.7,0-1.3,0.2-1.7,0.5c-0.4,0.3-0.6,0.8-0.6,1.3c0,0.4,0.1,0.7,0.2,0.9c0.2,0.3,0.4,0.5,0.8,0.7
			c0.4,0.2,1,0.5,1.9,0.9c1,0.4,1.8,0.8,2.3,1.2c0.5,0.4,0.8,0.8,1.1,1.3C900.9,98.1,901.1,98.7,901.1,99.3z"/>
		<path class="st3" d="M937.2,103.1v-14h2.3v14H937.2z"/>
		<path class="st3" d="M982.3,95.5h5.2v7c-0.8,0.3-1.7,0.5-2.4,0.6c-0.8,0.1-1.6,0.2-2.5,0.2c-2.1,0-3.8-0.6-4.9-1.9s-1.7-3-1.7-5.3
			c0-2.3,0.6-4,1.9-5.3c1.3-1.3,3.1-1.9,5.4-1.9c1.5,0,2.9,0.3,4.2,0.8l-0.8,1.9c-1.1-0.5-2.3-0.8-3.4-0.8c-1.5,0-2.7,0.5-3.5,1.4
			c-0.9,0.9-1.3,2.2-1.3,3.9c0,1.7,0.4,3,1.2,3.9c0.8,0.9,1.9,1.3,3.4,1.3c0.7,0,1.5-0.1,2.4-0.3v-3.6h-2.9V95.5z"/>
		<path class="st3" d="M1035.9,103.1h-2.8l-6.9-11.2h-0.1l0,0.6c0.1,1.2,0.1,2.3,0.1,3.3v7.3h-2.1v-14h2.8l6.9,11.1h0.1
			c0-0.1,0-0.7-0.1-1.6c0-0.9-0.1-1.6-0.1-2.2v-7.3h2.1V103.1z"/>
	</g>
	<g>
		<g>
			<path class="st3" d="M508.3,147.2c-1.8-0.1-3.3-0.8-4.4-2.5c0-0.1-0.2-0.4-0.2-0.6l-0.1-0.2c0,0,0.1-0.1,0.1-0.1c0,0,0,0-0.1-0.1
				c-0.1-0.1-0.1-0.2-0.1-0.3c0-0.1-0.2-0.3-0.2-0.4c0,0,0.1-0.1,0.1-0.2c0,0,0-0.1,0-0.1c0-0.2-0.2-0.5-0.2-0.8c0-0.3,0-0.6,0-0.8
				c0-0.9,0.1-1.6,0.5-2.7c0-0.2,0.2-0.3,0.2-0.3c0-0.2,0-0.4,0.1-0.5c0,0,0-0.1,0.1-0.2c0,0,0.1,0,0.1-0.1c0-0.8,1.5-2.3,1.7-2.5
				c0.2-0.1,0.2-0.4,0.3-0.3c0.1,0,0.2-0.4,0.9-1c0.8-0.7,1.4-1,1.6-1.1c0.4-0.2,1.1-0.6,1.1-0.6c0.1,0,0.4-0.1,0.4-0.1
				s0.9-0.4,1.1-0.4c0.3,0,0.9-0.3,1.1-0.3c1.3-0.5,4.2-0.7,4.2-0.7c-1.5-0.1-3.5-1.8-3.6-3.8c0-0.2,0-0.5-0.1-0.7v-0.2
				c0-0.2,0-0.5,0.1-0.6s0.1-0.4,0.2-0.6c0.1-0.1,0-0.3,0.2-0.3c0.1,0,0.3-0.4,0.4-0.6c0.1-0.5,0.7-1,1.2-1.5
				c0.5-0.5,1.8-1.2,1.8-1.2c0.1-0.1,0.3-0.2,0.7-0.4c0.4-0.2,0.6-0.3,0.7-0.3h0.2c0,0,0.1,0,0.3-0.1c0.1-0.1,0.4-0.1,0.7-0.2
				c0.3-0.1,0.7-0.2,0.8-0.2c0.2,0,0.5-0.1,0.7-0.1l0.9,0c0.1,0,0.3,0,0.5,0c1,0.2,1.6,0.5,1.8,0.6c0.7,0.3,1.2,0.9,1.5,1.4
				c0.2,0.5,0.4,0.8,0.4,1.7c0,0.1,0,0.3,0,0.4l0,0.5c0,0.6-0.4,0.9-0.4,1.2c0,0.3-1,1.6-2,1.8l-0.5,0.1c-0.4,0.1-0.8,0.1-1.1,0.1
				c-0.8,0-1.6-0.2-2.2-0.7c-0.7-0.5-1.3-1.1-1.3-1.3c-0.2-0.1-0.2-0.4-0.2-0.6v-0.3c0-0.1,0-0.2,0-0.3c0.2-0.3,0.2-0.4,0.3-0.5
				l0.3-0.2c0,0,0.1-0.1,0.4-0.2h0.4c0.1-0.1,0.1-0.1,0.2-0.1c0.3,0,0.6,0.3,0.7,0.6c0,0,0,0.1,0,0.1c0,0.1,0,0.1,0,0.2
				c0,0,0.1,0.2,0.1,0.4c0,0.1,0,0.2-0.1,0.3c-0.1,0.1-0.1,0.2-0.2,0.3c0,0,0,0.1,0,0.1c0,0,0,0,0,0.2c0,0.4,0.1,0.7,0.2,0.8
				c0.3,0.5,0.9,0.7,1.3,0.7c0.1,0,0.2,0,0.4,0c0.2,0,0.5,0,0.5,0c1-0.1,1.5-0.9,1.7-1.3c0,0,0-0.2,0.1-0.3c0.1-0.2,0.2-0.9,0.2-1
				c0,0,0-0.5,0-0.6c0-0.6-0.2-0.8-0.2-0.9c0-0.6-0.7-1.2-0.9-1.3c-0.2-0.2-0.3-0.4-0.4-0.4c-0.2,0-0.3-0.1-0.3-0.1
				c-0.2,0-1-0.4-1.1-0.4c-0.5-0.1-0.9-0.1-1.3-0.1c-1.4,0-2.4,0.7-2.4,0.7c0,0-0.5,0.1-0.8,0.5c-1.1,0.9-1.9,3-1.9,4.3
				c0,0.2,0,0.4,0,0.6l0,0.4c0.3,2.3,1.4,3,2.4,3.2c0.1,0,0.3,0.1,0.4,0.1h0.2c0.1,0,0.2,0.1,0.3,0.1h1.2c0.2,0,0.4-0.1,0.5-0.1
				c0.4,0,0.4-0.1,0.6-0.1c0.1,0,0.2,0,0.5,0.1c0.1,0,0.3,0.1,0.4,0.3c0,0,0,0.1,0,0.1c0,0.2-0.3,0.4-0.3,0.6c0,0.5-0.7,0.8-0.9,0.8
				c0,0-0.4,0.1-0.7,0.1c-0.2,0-0.2-0.2-0.4-0.2c-0.1,0-0.4-0.5-0.7-0.5c-0.1,0-0.2-0.4-0.9-0.4c-0.2,0-0.5-0.1-0.8-0.1
				c-0.1,0-0.2,0-0.4,0h-0.2c-1.6,0.3-2.3,0.7-2.5,0.7c-0.2,0-1.2,0.6-1.4,0.6c-0.3,0-1.8,0.8-2,1.2c0,0.1-0.3,0.3-0.4,0.3
				c-0.1,0-1,0.8-2.3,2c-0.1,0.1-0.1,0.4-0.2,0.3c-0.1,0-0.1,0.2-0.1,0.2l-0.3,0.5c-0.8,1.1-1.4,2.8-1.4,4.3c0,0.2,0,0.4,0,0.7v0.5
				c0,0.2,0.1,0.5,0.1,0.6c0,0,0.1,0.8,0.3,1.1c0.2,0.2,0.1,0.1,0.2,0.2v0.2c0,0.1,0.8,1.1,2,1.7c0.1,0,0.4,0.1,0.4,0.1
				c0.3,0.2,0.4,0.2,0.6,0.2h0.2l0.3,0c0.2,0,0.3,0,0.5,0h0.7c0.4,0,0.9-0.1,1-0.1c0,0,1.3-0.3,1.8-0.5c0,0,0.1,0,0.2-0.1
				c0,0,0-0.1,0.1-0.1c0,0,0.5-0.3,0.8-0.5c0,0,0.1,0,0.2-0.1c0.1,0,0.2-0.1,0.3-0.2l0.2-0.1c0.1-0.1,0.2-0.2,0.2-0.2l1.1-0.9
				c0,0,0.1-0.1,0.2-0.2l0.6-0.5c0.1-0.1,0.2-0.2,0.3-0.2c0.1,0,0.2,0,0.2,0.1c0,0.1-0.1,0.2-0.2,0.3l-1.7,1.6
				c-0.9,0.8-2.3,1.7-2.7,1.8l-0.6,0.3c-0.2,0-0.3,0.2-0.4,0.2c-0.1,0-0.2,0.1-0.3,0.1c-0.7,0.2-1.6,0.4-3.1,0.4L508.3,147.2z"/>
			<path class="st3" d="M523.2,146.4c-0.4,0.1-1,0.4-1.6,0.4l-0.2,0h-0.6c-0.1,0-0.2,0-0.4,0c-0.1,0-0.3,0-0.4,0c0,0-0.2,0-0.2-0.1
				c-0.1,0-0.1,0-0.2-0.1c-0.4-0.1-0.8-0.6-0.8-0.8c-0.1-0.2-0.2-0.3-0.2-0.5c-0.1-0.3-0.1-0.6-0.1-0.7l0-0.2c0-0.4,0.4-0.7,0.4-0.7
				c0-0.2,0.4-0.4,0.6-0.4h0.3c0.1,0,0.2,0,0.2,0.2c0,0,0.1,0,0.2,0c0,0,0,0.1,0.1,0.2c0.2,0.1,0.3,0.2,0.3,0.4c0,0,0,0.1,0,0.2
				c0,0,0,0.1,0,0.1c0,0,0,0.1-0.1,0.2c0,0-0.1,0.1-0.1,0.2c0,0.2-0.3,0.2-0.4,0.4c0,0-0.1,0.1-0.1,0.3c0,0.1,0,0.3,0.1,0.4
				c0,0,0.1,0.2,0.3,0.3c0.1,0,0.2,0,0.3,0l0.2,0c0.1,0,0.2,0,0.3,0c0.2,0,0.2,0,0.2-0.1c0.1,0,0.2-0.1,0.2-0.1
				c0.5-0.3,1.1-2.2,1.2-2.9v-0.4c0-0.1,0.1-0.2,0.1-0.3l0.2-1.6c0-0.4,0.1-0.6,0.1-0.6l0.1-0.7c0.1-0.8,0.7-2.5,0.7-2.5l-0.4,0.3
				c-0.1,0.1-1.2,0.9-1.6,1.5c-0.1,0.1-0.4,0.3-0.6,0.4c-0.1,0.1-0.9,0.8-1,0.9l-1.3,1.2c-0.1,0.1-0.6,0.4-0.6,0.6
				c0,0.1-0.9,0.8-1,0.8c0,0-0.1,0-0.1,0c-0.1,0-0.1-0.1-0.1-0.1s0-0.1,0.1-0.2l2.5-2.3c0.2-0.1,0.8-0.8,1-1
				c1.4-1.1,2.3-2.1,2.5-2.2l0.6-0.5c0,0,0-0.1,0.1-0.1c0.1,0,0.2-0.1,0.2-0.1c0.1,0,0,0,0.2-0.2s0.3-0.2,0.5-0.3
				c0.1-0.1,0.8-0.3,0.8-0.4c0,0,0.1,0,0.2,0c0.1-0.1,0.5-0.1,0.6-0.1c0.1,0,0.2,0.1,0.3,0.1c0.1,0,0.1,0.2,0.1,0.2c0,0,0,0.1,0,0.1
				c0,0-0.2,0.1-0.3,0.1s-0.2-0.1-0.4-0.1c-0.3,0.1-0.4,0.6-0.4,0.6c-0.3,0.4-0.3,1.4-0.4,1.6c-0.1,0.1-0.1,1-0.3,1c0,0,0,0.1,0,0.1
				v0.6l-0.1,0.1v0.2c0,0.2-0.1,0.5-0.2,0.8c0,0.2-0.2,0.8-0.2,1.3l0,0.2c0,0.1-0.1,0.8-0.4,1.4c-0.2,0.5-0.5,1.5-1.4,2.3
				c0,0,1.1-0.5,1.5-0.9c0.3-0.1,0.6-0.3,0.8-0.6l0.7-0.5c0.8-0.8,1.3-1.2,1.6-1.5c0.1-0.1,0.2-0.2,0.3-0.2c0,0,0.1,0.1,0.1,0.1
				c0,0.1-0.1,0.2-0.3,0.4l-0.8,0.8c-0.2,0.2-0.4,0.3-0.5,0.4c-0.1,0.2-0.6,0.5-0.7,0.6C526,144.7,524.7,145.8,523.2,146.4z"/>
			<path class="st3" d="M531.8,142.2c0,0-0.1,0-0.1,0.2c-0.1,0.4-0.4,0.8-0.5,1c-0.1,0.6-0.7,1.2-0.7,2c0,0.1-0.1,0.4-0.1,0.5
				c0,0.8,0.1,1.3,0.1,1.7c0,0.2,0.3,0.9,0.6,0.9c0.1,0,0.2,0,0.3,0c0.1,0,0.2,0,0.3,0.2l-0.1,0.1c0,0.1-0.1,0.1-0.2,0.1h-0.2
				c-0.1,0-0.1,0-0.3-0.1c-0.5-0.2-0.2-0.2-0.7-0.5c0,0-0.3-0.3-0.4-0.5c0-0.1-0.3-0.3-0.3-0.5l-0.2-0.8c0-0.1,0-0.1,0-0.2
				c0,0,0-0.1,0-0.2c0,0,0-0.1,0-0.1v-0.6c0-0.1,0-0.1,0-0.2c0-0.4,0-0.8,0.3-1.3c0,0,0-0.1,0-0.1c0,0,0.1-0.1,0.1-0.1
				c0,0,0.1-0.7,0.3-0.9l0.9-1.6l0.4-0.6c0.2-0.3,0.4-0.6,0.5-0.9l-0.8,0.8c-0.6,0.7-1.3,1.4-1.4,1.5c-0.2,0.1-1,1.2-1.3,1.2
				c0,0-0.1,0-0.1-0.1c0-0.1,0-0.2,0.2-0.3c1.2-1.2,3.8-4.3,4.2-4.8c0.1-0.2,0.2-0.4,0.3-0.5c0,0,0-0.2,0.1-0.2
				c0.5-0.3,0.6-0.8,0.7-0.9c0.2-0.2,1.4-2,1.5-2l0.1-0.2c0.1-0.5,1.2-2.1,1.7-2.8l0.3-0.5l-2.6,0.1c-0.1,0-0.3,0-0.4,0l-0.5,0
				c-0.2,0-0.4-0.1-0.5-0.1c0,0-0.1,0-0.2,0c0,0-0.1-0.1-0.1-0.1c0,0,0-0.2,0-0.2c0-0.1,0.2,0,0.3-0.1c0-0.1,0.5-0.1,0.5-0.1
				c0,0,0.1,0,0.2,0c0.3,0,0.5,0,0.8,0c0.1,0,0.4,0,0.5,0l0.4,0h0.5c0,0,0.3,0,0.6,0c0.3,0,0.4,0,0.4,0h0.2l0.8-1.3
				c0,0,0.6-1.2,0.8-1.5c0.5-1,1.1-2,1.5-2.7c0,0,0.1-0.3,0.1-0.4c0-0.1,0-0.1,0.1-0.1c0,0,0.1-0.3,0.7-0.6c0.1-0.2,0.4-0.7,0.6-0.7
				c0.2,0,0.7,1,0.7,1.2c0,0-0.1,0.1-0.1,0.2c0,0,0,0,0,0.1c0,0.1,0,0.3,0,0.3c0,0-0.1,0.2-0.1,0.3c0,0-0.3,0.5-0.3,0.8
				s-0.5,0.5-0.5,0.7c0,0.3-0.3,0.6-0.4,0.8c-0.5,0.9-0.8,1.3-1.3,2.1l-0.6,0.9l0.8,0c0.5,0,1-0.1,1.1-0.1c0.1,0,0.1,0,0.2,0
				c0.1,0,0.1,0.1,0.2,0.1l2.9-0.1c0.2,0,0.5-0.1,0.6-0.1c0.3,0,0.6,0,0.8,0h3.3c0.1,0,0.2,0.1,0.2,0.2s0,0.3-0.1,0.3
				c-0.3,0.2-1.3,0.4-1.6,0.4c0,0.1-0.2,0.1-0.4,0.1c-0.4,0-0.9,0.1-0.9,0.1c-0.4,0-0.6-0.1-0.8-0.1c-0.1,0-0.2-0.1-0.3-0.1
				c0,0-0.1,0.1-0.2,0.1c-0.1,0-0.2,0-0.2,0c-0.1,0-0.1,0-0.2,0c-0.4,0-1.9-0.1-2.6-0.1l-2.6,0.1c-0.1,0-0.3,0-0.4,0l-0.3,0.5
				c0,0-0.1,0.2-0.1,0.2c-0.1,0.2-0.2,0.2-0.2,0.2l-1.9,3.3c-1,1.7-2.5,4-4.4,7.3C532,142,531.9,142.2,531.8,142.2z"/>
			<path class="st3" d="M544,135.5c0,0,0.2-0.1,0.3-0.1c0.2,0,1.1,0.4,1.2,0.4c0,0,0,0.2,0.1,0.2c0.5,0,1.2,0.8,1.2,1.3
				c0,0.5-0.3,0.6-0.3,0.7c0.5,0,0.6,0,0.6,0.3c0,0-1.4,2.5-1.8,2.7c-0.1,0.1,0,0.4-0.3,0.6c0,0-0.1,0.1-0.1,0.3
				c0,0.7-0.8,1.8-0.8,2.6c0,0.1,0,0.2,0,0.3c0,0.3,0.1,0.6,0.3,0.6c0.6,0,2.1-1.3,2.2-1.3c0.5-0.4,1-0.8,1.5-1.3
				c0.1-0.1,0.3-0.3,0.4-0.3c0.1,0,0.1,0,0.1,0.1c0,0.1-0.2,0.3-0.3,0.4l-2.1,2.2c-0.1,0.1-0.1,0.1-0.2,0.1c-0.1,0-1.1,1.1-2.7,1.1
				H543c-0.3,0-0.6-0.1-0.7-0.5c-0.1-0.2-0.2-0.2-0.2-0.4v-0.2c0-0.8,0.8-2.2,0.8-2.2s-2.8,2.8-3.5,2.9c-0.4,0-0.2,0.1-0.3,0.2
				c-0.8,0.4-1.5,0.6-2,0.6c-0.9,0-1.5-0.7-1.5-1.9c0-0.1,0-0.3,0-0.5v-0.3c0-0.6,0.2-1.1,0.4-1.5c0.3-0.6,0.7-1.2,1.1-1.9
				c0.4-0.6,0.8-0.8,0.8-0.9c0-0.6,1.9-1.8,1.9-1.9c0-0.1,0.1-0.2,0.3-0.2c0.3-0.4,0.8-0.5,0.9-0.7c0.2-0.4,0.6-0.5,0.9-0.8
				c0.5-0.4,1.1-0.8,1.7-0.8C543.8,135.4,543.9,135.5,544,135.5z M544.9,138.7c0-0.2,0.5-0.3,0.6-0.4c0-0.1-0.5,0-0.6-0.4
				c-0.1-0.3-0.3-0.8-0.8-0.8c-0.1,0-0.1-0.1-0.2-0.1c-0.1,0-0.2,0-0.2,0c0,0-0.4,0-0.5-0.1h-0.2c-0.4,0-0.8,0.1-0.9,0.3
				c0,0.1-3.1,1.2-4.4,6.4l0,0.2c0,0.1-0.1,0.2-0.1,0.4c0,0,0,0.2,0,0.2c0,0,0,0.2,0,0.3v0.4c0,0.1,0,0.2,0.1,0.3
				c0.1,0.2,0.3,0.3,0.6,0.3c0.3,0,0.7,0,1.1-0.2c0.5-0.3,0.9-0.5,1.1-0.7c0.5-0.5,1.4-1.2,1.4-1.2c0,0,0.1-0.2,0.2-0.3
				c0.4-0.2,1-1.2,1.6-2.1l1-1.8L544.9,138.7z"/>
			<path class="st3" d="M557.4,133.9c-0.1,0.2-0.4,0.6-0.8,1.2l-1.7,2.7l0.9-0.8c0.1,0,0.2-0.2,0.3-0.2c0.1,0,0.1-0.1,0.2-0.2
				l0.2-0.1c0.6-0.3,1.2-0.6,1.7-0.7c0.3,0,0.8,0.2,0.8,0.5c0,0,0.2,0.1,0.4,0.3c0,0,0.1,0.1,0.2,0.2c0,0.1,0.1,0.2,0.2,0.2
				c0.2,0.1,0.4,0.7,0.4,1.2c0,0.1,0,0.3,0,0.6v0.6c0,0.3,0,0.6-0.1,0.8c0,0.1,0,0.1,0,0.1c0,0,0,0,0,0.1c0,0.1,0,0.2-0.1,0.5
				c0,0.3-0.1,0.6-0.3,0.9c0,0.1,0,0.1,0,0.2c0,0.1-0.1,0.3-0.2,0.4l-0.1,0.4c0,0.2-0.2,0.3-0.2,0.3l-0.5,0.7
				c-0.7,0.8-1.3,1.4-1.8,1.8l-0.5,0.3l0.9-0.4c0.1,0,0.3-0.1,0.4-0.2c0,0,0.5-0.3,0.8-0.5l0.8-0.6c0.1-0.1,0.3-0.2,0.4-0.2
				c0-0.1,0.1,0,0.2-0.1l0.1-0.1c0.2-0.2,0.5-0.5,0.6-0.5l1.1-0.9c0,0,0.1,0,0.1,0.1c0,0.3-0.4,0.7-0.9,1c-0.7,0.6-1.4,1.2-2.2,1.6
				c-0.1,0.1-0.5,0.3-1,0.7c-0.4,0.2-1.4,0.7-1.5,0.7c-0.2,0-0.3,0.1-0.6,0.1c-0.2,0.1-0.4,0.1-0.7,0.1c-0.1,0-0.4,0-0.6,0.1h-0.2
				c-0.2,0-0.2,0-0.4,0h-0.3c0,0-0.1,0-0.2,0c-0.5,0-0.4-0.2-0.6-0.3c-0.6-0.1-0.8-0.6-1.1-0.9c0,0-0.1-0.1-0.1-0.1
				c-0.1-0.1-0.1-0.5-0.1-0.6l0-0.3c0-0.4,0.3-0.6,0.3-0.6c0-0.2,0.2-0.4,0.6-0.5l0.2,0c0,0,0.4,0,0.6,0.3c0.1,0,0.2,0.1,0.2,0.2
				l0.1,0.2c0.1,0,0.1,0.2,0.1,0.4v0.2c0,0.2-0.3,0.4-0.3,0.8c0,0.1-0.1,0.4-0.1,0.5s0.1,0.2,0.3,0.3l0.1,0h0.2
				c0.4,0,0.9-0.2,1.1-0.4c0.1,0,0.5-0.4,0.8-0.7c0.1-0.1,0.2-0.4,0.4-0.4c0.2-0.1,0.3-0.3,0.3-0.4c0.1-0.1,0.3-0.2,0.3-0.4
				c0.1-0.2,0.3-0.2,0.3-0.4c0-0.1,0.1-0.2,0.2-0.3c0,0,0-0.2,0.4-0.7l0.5-0.8c0.2-0.9,0.5-0.8,0.5-2.4c0-0.2,0-0.4,0-0.5v-0.5
				c0-0.1,0-0.1-0.1-0.2c0-0.1-0.1-0.1-0.1-0.2c-0.1-0.1-0.2-0.3-0.3-0.4c0,0-0.3-0.4-1-0.4c-0.1,0-0.2,0-0.3,0c0,0-0.1,0-0.3,0
				c-0.2,0-0.3,0.1-0.5,0.1l-0.3,0.1c-0.4,0.2-0.4,0.3-0.6,0.4c-0.3,0.2-0.7,0.6-0.9,1c0,0.1-0.3,0.2-0.3,0.3
				c-0.2,0.4-0.3,0.3-0.3,0.4c0,0.3-2,3.3-2.3,3.9c-0.2,0.4-0.4,0.6-0.6,0.9c-0.1,0.1,0,0.3-0.1,0.4l-0.2,0.5
				c-0.1,0.2-0.2,0.2-0.3,0.5c0,0.1-0.1,0.4-0.3,0.6c-0.1,0.1,0,0.3-0.2,0.3c-0.7,0-0.9-0.1-1.1-0.5c0,0-0.1-0.1-0.1-0.2
				c0,0-0.1-0.1-0.1-0.2c0-0.1,0.2-0.2,0.2-0.4c0-0.2,0.2-0.5,0.4-0.6l0.6-0.8c0.1-0.2,0.2-0.4,0.3-0.6c0,0,0-0.1,0.1-0.1
				c0.3-0.5,0.7-1.3,0.9-1.5l0.6-0.8c0.2-0.3,0.3-0.6,0.3-0.7c0.4-0.7,1.8-2.9,1.8-2.9s-1.2,1.3-1.4,1.6c-0.8,0.9-1.4,1.5-2.1,2.1
				c-0.3,0.3-0.8,0.9-1.1,1.1c-0.1,0-0.4,0.6-0.7,0.6c-0.1,0-0.1-0.1-0.1-0.1c0-0.2,0.4-0.5,0.5-0.6c0.1-0.2,0.5-0.6,0.8-0.8
				l1.3-1.3c0,0,0.2-0.4,0.5-0.6c0.3-0.3,0.9-1,1.3-1.5c0.7-0.8,2-2.3,2-2.3s0.8-1.4,1.1-1.5c0.1,0,0.1-0.1,0.1-0.2l0.1-0.2
				c0-0.1,0.5-0.7,0.5-0.8c0.3-0.5,1.7-3.1,1.7-3.1s0.5-0.8,0.7-1c0.2-0.4,0.8-1.6,1.2-2.2c1.4-2.4,1.7-2.6,2.7-4.5
				c0-0.1,0.5-0.6,0.6-0.8c0.5-0.8,1.8-2,2-2.3c0.5-0.6,1.1-1,1.8-1c0.1,0,0.3,0,0.5,0c0.2,0,0.2,0.1,0.2,0.3c0,0.3,0.1,0.3,0.1,0.7
				c0,0.1,0,0.2,0,0.4c0,0.2,0,0.9-0.1,1.1c0,0,0,0.1,0,0.1c-0.1,0.4-0.2,1-0.9,2.3l-0.6,0.9c-0.7,1.1-1.4,2.3-1.8,2.5
				c0.1,0.3-2,2.6-2.3,2.8l-1,0.9c-0.3,0.4-1.8,1.8-1.9,1.9c0,0.1-0.1,0.1-0.3,0.2C558.6,132.5,557.5,133.8,557.4,133.9z
				 M561.8,128.8c0.8-0.8,1.5-1.7,2.1-2.5c2.5-3.5,2.8-5.3,2.8-5.3c0,0,0-0.2,0.1-0.3c0,0,0-0.1,0-0.2c0-0.3-0.1-0.6-0.3-0.6
				c-0.1,0-0.1,0.2-0.3,0.4c-0.5,0.5-0.5,0.4-0.8,0.9c-0.4,0.5-0.8,0.8-1.4,1.8c-0.6,1-1.4,2-1.5,2.3c-0.2,0.5-0.7,0.8-1,1.5
				c-1.7,2.9-3.4,5.8-3.4,5.8S560.2,130.4,561.8,128.8z"/>
			<path class="st3" d="M565.7,142.9c-0.1,0.2-0.1,0.3-0.2,0.6c-0.2,0.3-0.5,0.9-0.5,1.6c0,0.1,0,0.2,0.1,0.2
				c0.1,0.2,0.2,0.3,0.3,0.3s0.2,0,0.4,0c0.1,0,0.3,0,0.4,0c0.3-0.1,0.4,0,0.7-0.2c0.2-0.1,0.4-0.2,0.7-0.4c0.6-0.4,1.1-0.9,1.3-0.9
				c0.4-0.1,0.4-0.4,0.6-0.5c0.4-0.3,1.2-1.1,1.5-1.1c0,0,0.1,0,0.1,0.1c0,0.2-0.2,0.3-0.3,0.5l-1,0.9c-0.2,0.2-0.3,0.5-0.5,0.5
				c-0.1,0-0.3,0.1-0.4,0.3c-0.1,0.1-0.6,0.5-0.9,0.7c-0.3,0.2-0.5,0.5-0.6,0.5c-0.3,0-0.4,0.1-0.8,0.4c-0.3,0.2-0.6,0.2-0.9,0.4
				c-0.2,0.1-0.4,0.1-0.6,0.1c-0.1,0-0.2,0-0.4,0c-1-0.1-1.4-0.8-1.4-1.6c0-0.2,0-0.4,0-0.6v-0.3c0-0.1,0.2-0.2,0.2-0.4
				c0-0.2,0-0.4,0.1-0.5c0.1-0.1,0.1-0.3,0.2-0.5c0,0,0.4-0.9,0.6-1.1s0-0.3,0.2-0.4c0.1,0,0.8-1.5,1-1.8l0.4-0.8
				c-0.1,0.1-1.6,1.5-2.1,2.1c-0.1,0.1-0.4,0.5-0.6,0.6c-0.6,0.4-1,1.2-1.4,1.2c-0.1,0-0.1,0-0.1-0.1c0-0.1,0.2-0.4,0.3-0.5
				c0.2-0.2,3.6-3.8,3.6-3.8s0.7-0.7,1.1-1.4l2.3-3.6c0,0,0-0.1,0-0.1l0.1-0.2c0-0.2,0.2-0.4,0.4-0.7l4.8-8.2
				c0.1-0.2,0.2-0.1,0.3-0.4c0.2-0.3,0.1-0.4,0.3-0.5s0.4-0.7,0.5-0.8c0.3-0.6,0.5-0.6,0.6-0.8c0-0.1,0.2-0.5,0.3-0.5
				c1.5-2.2,2.5-3.2,3-3.6c0.4-0.4,0.8-0.6,1-0.7c0,0,0-0.1,0.1-0.1c0.1,0,0.2,0,0.2-0.1c0-0.1,0.3-0.2,0.4-0.2c0,0,0.1-0.2,0.2-0.2
				h0.2c0.1,0,0.6-0.6,1-0.6c0.1,0,0.2,0,0.3,0c0.1,0,0.2,0.1,0.2,0.1c0,0-0.1,0.1-0.1,0.2c-0.1,0.2-1.2,0.5-1.3,0.6
				c0,0-0.2,0.1-0.4,0.3c-0.8,0.5-1.6,1.7-1.7,1.9c0,0.1-0.4,0.7-0.5,0.7c-0.2,0-0.3,0.5-0.8,1.1c-0.1,0.4-0.6,0.8-1,1.6l-0.1,0.3
				c-2,3.3-4.5,7.8-4.7,8s-0.3,0.3-0.4,0.8c-0.3,0.8-0.8,1.3-0.8,1.3s-0.4,0.9-0.8,1.5l-0.3,0.5c-1.7,2.9-2.7,4.6-3,5.1
				c-0.2,0.4-0.2,0.5-0.5,0.8c-0.1,0.1-0.7,1.7-0.9,1.7C565.9,142.3,565.7,142.8,565.7,142.9z"/>
			<path class="st3" d="M575.1,138.2l0.5-0.3c0.1-0.2,0.4-0.8,0.6-0.9c0,0,0.3-0.1,0.4-0.1c0.4-0.4,0.8-0.6,1-0.6
				c0.6,0,0.6,0.8,0.6,1.1c-0.2,0.1-0.4,0.4-0.4,0.7c0,0-0.1,0-0.1,0.1c0,0-1,1.7-2.2,3.5c0,0,0,0.4-0.2,0.6c0,0-0.3,0.5-0.3,0.5
				c0,0.2,0,0.2,0,0.2s-0.4,0.5-0.4,0.8c0,0-0.1,0.5-0.3,0.6c-0.1,0.1-0.1,0.2-0.1,0.3l-0.1,0.5c0,0.4,0.1,0.7,0.3,0.7
				c0.1,0,0.1,0,0.2,0c1.1,0,2.8-1.4,2.8-1.5l1.4-1.1c0-0.1,0.5-0.4,0.6-0.5c0.1-0.1,0.2-0.3,0.4-0.3c0,0,0.1,0.1,0.1,0.1
				c0,0.3-1.2,1.3-1.3,1.3c0,0-0.4,0.3-0.6,0.5c-0.7,0.5-1.5,1.4-1.8,1.6c-0.9,0.3-1.1,0.9-2.8,0.9c-1,0-1.3-0.7-1.3-0.8
				c0-0.1,0-0.2,0-0.3c0-0.2,0-0.3,0-0.3s-0.1-0.1-0.1-0.3c0-0.1,0-0.3,0.1-0.6c0.3-0.3,0.1-0.4,0.2-0.5l0.3-0.5
				c2-3.2,2.3-3.6,2.7-4.4c0,0-1.5,1.1-2.4,2.2c-0.1,0.1-0.5,0.3-0.7,0.5c-0.7,0.6-1,1.1-1.3,1.2c0,0-0.1,0-0.1,0c0,0,0-0.1,0-0.1
				c0.1-0.2,0.4-0.4,0.4-0.5c0-0.1,0.2-0.2,0.2-0.2c0.2-0.1,0.6-0.5,0.7-0.6c0.8-0.7,1.6-1.6,1.7-1.7
				C573.9,139.4,574.8,138.5,575.1,138.2z M578.3,133.4v-0.2c0-0.1,0-0.2,0.1-0.2c0.1,0,0.1-0.2,0.2-0.3c0.2-0.2,0.5-0.3,0.7-0.3
				c0.1,0,0-0.2,0.4-0.3c0.1,0,0.2-0.1,0.4-0.1c0.4,0,0.7,0.2,0.7,0.6v0.2c0,0.1,0,0.3-0.2,0.6c-0.1,0.1-0.3,0-0.3,0.1
				c0,0.5-0.4,0.7-1,0.7c-0.4,0-0.8-0.1-0.9-0.4C578.4,133.7,578.3,133.6,578.3,133.4z"/>
			<path class="st3" d="M584.8,146.4c-0.4,0.1-1,0.4-1.6,0.4l-0.2,0h-0.6c-0.1,0-0.2,0-0.4,0c-0.1,0-0.3,0-0.4,0c0,0-0.2,0-0.2-0.1
				c-0.1,0-0.1,0-0.2-0.1c-0.4-0.1-0.8-0.6-0.8-0.8c-0.1-0.2-0.2-0.3-0.2-0.5c-0.1-0.3-0.1-0.6-0.1-0.7l0-0.2c0-0.4,0.4-0.7,0.4-0.7
				c0-0.2,0.4-0.4,0.6-0.4h0.3c0.1,0,0.2,0,0.2,0.2c0,0,0.1,0,0.2,0c0,0,0,0.1,0.1,0.2c0.2,0.1,0.3,0.2,0.3,0.4c0,0,0,0.1,0,0.2
				c0,0,0,0.1,0,0.1c0,0,0,0.1-0.1,0.2c0,0-0.1,0.1-0.1,0.2c0,0.2-0.3,0.2-0.4,0.4c0,0-0.1,0.1-0.1,0.3c0,0.1,0,0.3,0.1,0.4
				c0,0,0.1,0.2,0.3,0.3c0.1,0,0.2,0,0.3,0l0.2,0c0.1,0,0.2,0,0.3,0c0.2,0,0.2,0,0.2-0.1c0.1,0,0.2-0.1,0.2-0.1
				c0.5-0.3,1.1-2.2,1.2-2.9v-0.4c0-0.1,0.1-0.2,0.1-0.3l0.2-1.6c0-0.4,0.1-0.6,0.1-0.6l0.1-0.7c0.1-0.8,0.7-2.5,0.7-2.5l-0.4,0.3
				c-0.1,0.1-1.2,0.9-1.6,1.5c-0.1,0.1-0.4,0.3-0.6,0.4c-0.1,0.1-0.9,0.8-1,0.9l-1.3,1.2c-0.1,0.1-0.6,0.4-0.6,0.6
				c0,0.1-0.9,0.8-1,0.8c0,0-0.1,0-0.1,0c-0.1,0-0.1-0.1-0.1-0.1s0-0.1,0.1-0.2l2.5-2.3c0.2-0.1,0.8-0.8,1-1
				c1.4-1.1,2.3-2.1,2.5-2.2l0.6-0.5c0,0,0-0.1,0.1-0.1c0.1,0,0.2-0.1,0.2-0.1c0.1,0,0,0,0.2-0.2s0.3-0.2,0.5-0.3
				c0.1-0.1,0.8-0.3,0.8-0.4c0,0,0.1,0,0.2,0c0.1-0.1,0.5-0.1,0.6-0.1c0.1,0,0.2,0.1,0.3,0.1c0.1,0,0.1,0.2,0.1,0.2c0,0,0,0.1,0,0.1
				c0,0-0.2,0.1-0.3,0.1s-0.2-0.1-0.4-0.1c-0.3,0.1-0.4,0.6-0.4,0.6c-0.3,0.4-0.3,1.4-0.4,1.6c-0.1,0.1-0.1,1-0.3,1c0,0,0,0.1,0,0.1
				v0.6l-0.1,0.1v0.2c0,0.2-0.1,0.5-0.2,0.8c0,0.2-0.2,0.8-0.2,1.3l0,0.2c0,0.1-0.1,0.8-0.4,1.4c-0.2,0.5-0.5,1.5-1.4,2.3
				c0,0,1.1-0.5,1.5-0.9c0.3-0.1,0.6-0.3,0.8-0.6l0.7-0.5c0.8-0.8,1.3-1.2,1.6-1.5c0.1-0.1,0.2-0.2,0.3-0.2c0,0,0.1,0.1,0.1,0.1
				c0,0.1-0.1,0.2-0.3,0.4l-0.8,0.8c-0.2,0.2-0.4,0.3-0.5,0.4c-0.1,0.2-0.6,0.5-0.7,0.6C587.5,144.7,586.3,145.8,584.8,146.4z"/>
			<path class="st3" d="M592.2,145.9l0.6-0.5c1.1-1.8,5.9-6.2,6.8-7c0.1-0.1,0.1-0.1,0.1-0.1c0.6-0.6,1.4-1.2,1.6-1.4
				c0.1-0.1,0.2-0.3,0.3-0.3c0.5,0,0.8-0.8,1.2-0.8c0.3,0.1,0.2,0.1,0.3,0.2c0.1,0,0.6,0.3,0.7,0.4c0,0.1,0,0.2,0,0.3
				c0,0,0.1,0.2,0.1,0.4c0,0,0,0.1-0.1,0.2c0,0-0.5,0.8-0.5,0.9l-0.8,1.5c0,0,0,0.2-0.1,0.3c0,0.2-0.2,0.5-0.2,0.5s-0.4,0.6-0.4,0.7
				c0,0.1-0.5,1.3-0.6,1.5c-0.1,0.4-0.3,1.3-0.3,1.6c0,0.4,0.1,0.6,0.2,0.9c0,0,0.2,0.2,0.4,0.2c0.2,0,0.4,0,0.6-0.1
				c0.3-0.1,0.4-0.2,0.9-0.7c0-0.1,1.2-1,1.3-1c0,0,0.1,0,0.1-0.1c0.1-0.2,0.2-0.4,0.3-0.4c0.1,0,0.1,0,0.1,0.2
				c-0.1,0.2-0.5,0.3-0.5,0.5c0,0.1-0.6,0.6-0.9,0.9l-0.2,0.1c0,0.1,0,0.1,0,0.1c-0.7,0.4-1.5,1.3-2.5,1.3c-0.3,0-0.8-0.2-0.8-0.2
				c0,0-0.1,0-0.1,0s-0.2-0.5-0.4-0.5c-0.1,0-0.2-0.2-0.2-0.4v-0.7c0-1.1,0.2-2.2,0.6-3.2c0.1,0,0.1-0.1,0.1-0.3
				c0-0.1,0.4-1,0.5-1.1c0,0,0-0.1,0-0.2c0,0,0.9-1.8,0.9-1.8s-1.2,0.6-2.3,1.9c-0.1,0-1.6,1.4-1.7,1.5c-0.5,0.3-2.2,2.5-2.3,2.5
				c-0.3,0.1-0.5,0.3-0.5,0.3c0,0-2.5,3.1-3.1,3c0,0-0.1-0.1-0.2-0.1h-0.2c-0.7,0-0.8-0.7-0.8-0.8c0-0.1,0.1-0.2,0.1-0.3
				c0-0.7,0.4-0.9,0.4-1c0-0.1,0.2-0.7,0.3-0.8c0.1-0.1,0.2-0.2,0.2-0.2l0.8-1.5c0-0.1,0.3-0.2,0.3-0.3c0.1-0.5,0.6-1.1,0.6-1.1
				s0-0.1,0.3-0.6l1.6-2.6l-1,1.1c0,0-0.3,0.3-0.4,0.4c-0.4,0.3-1,1-1.1,1.2c-1.1,0.9-1.9,1.8-1.9,1.8s-0.3,0.3-0.6,0.5
				c0,0-0.1,0.1-0.2,0.1c-0.1,0-0.1,0-0.1-0.1c0-0.1,0.1-0.2,0.1-0.3c0,0,1.3-1.1,1.7-1.6l0.3-0.3c0.1-0.2,3.2-3.2,3.5-3.8
				c0.1-0.3,0.5-0.4,0.5-0.5c0-0.1,0.1-0.3,0.3-0.5c0.8-1.3,1.4-2.2,2.8-4.3l0.3-0.6c0-0.1,0-0.2,0.2-0.3c0.2-0.2,0.5-0.6,0.5-0.9
				c0.5-1,1.3-2,1.6-2.6c0-0.1,0.1-0.4,0.2-0.4c0.4-0.2,0.5-0.7,0.6-0.9c1.4-2.1,2.2-3.3,2.2-3.4c0,0,0.2-0.5,0.4-0.6
				c0.1,0,0.7-0.7,0.8-0.8c0.3-0.4,0.8-0.7,1-1.1c0-0.1,0.9-0.6,1.3-1c0.1-0.1,0.5-0.3,0.7-0.3c0.5-0.2,0.8-0.5,1.2-0.5
				c0.2,0,0.4,0.1,0.7,0.5v0.2c0,0.1,0,0.2,0,0.2c0,0,0,0.2,0,0.3c0,0.5,0,1.1-0.4,2.1c-0.1,0.3-0.3,0.7-0.3,0.8
				c-0.8,1.3-2.3,3.3-3,4l-2,2.1c-0.9,0.9-1.6,1.8-1.6,1.8s0,0.1-0.1,0.1c-0.2,0-0.3,0.3-0.4,0.4c-0.6,0.7-1.6,1.4-2.8,2.7
				c-0.2,0.2-0.7,0.5-0.9,1.1l-0.2,0.3c-0.8,1.2-2.5,4.3-2.6,4.4c0,0-0.1,0.5-0.3,0.6c-0.1,0.1-0.6,0.8-0.6,0.9c0,0-0.1,0.2-0.3,0.5
				c0-0.1-0.5,1-1.2,2.2c-0.1,0.2-0.8,1.6-1,1.9C592.5,145.2,592.2,145.9,592.2,145.9z M602.8,129.3c0,0,2.1-2.3,2.6-3
				c0-0.1,0.2-0.1,0.3-0.2c0.5-0.7,0.6-0.6,0.7-0.7c0-0.2,0.8-1.4,1-1.6c1.4-1.8,1.7-3.3,1.7-3.4c0,0,0-0.1,0-0.1
				c0-0.3,0.2-0.5,0.2-0.8c0-0.2,0-0.2-0.1-0.2c-0.8,0-3.8,3.9-3.9,4c0,0-0.3,0.6-0.4,0.7c-0.1,0-0.2,0.6-0.5,0.8
				c-0.1,0.1-0.6,1-0.6,0.9c0.1-0.1-1.9,3.2-2.2,3.7c-0.1,0.1-0.6,1-0.6,1c-0.1,0.1-1.5,2.5-1.5,2.5s2.9-2.8,2.9-2.9
				C602.5,129.6,602.8,129.3,602.8,129.3z M605.5,142.4c0.1,0,0.1,0.1,0.1,0.2c-0.1,0.2-0.5,0.5-0.7,0.5
				C605,142.8,605.5,142.4,605.5,142.4z"/>
			<path class="st3" d="M608.7,142c0,0-0.1,0-0.1-0.1c0,0,0.1,0,0.1,0c0.2-0.1,0.5-0.5,0.9-0.5h0.4c0,0,0-0.1,0-0.1
				c0-0.1,0.8-0.5,1-0.5c0.4-0.1,0.6-0.4,0.8-0.5c0.5-0.2,0,0,0.8-0.6c0-0.1,0.5-0.4,0.5-0.7l0.5-0.8c0.1-0.1,0.2-0.7,0.2-1
				c0-0.2,0-0.4-0.1-0.5c-0.1,0-0.2-0.1-0.3-0.1h-0.2c-0.3,0-0.9,0.3-1.7,1c-0.1,0.1-0.3,0.1-0.4,0.2l-0.1,0.1
				c-0.5,0.5-1.1,1.3-1.7,2c-0.1,0.1-0.8,1.4-0.9,1.5c-0.3,0.2-0.1,0.6-0.3,0.9c-0.3,0.5-0.2,0.8-0.3,1.1c0,0.1-0.1,0.3-0.1,0.5
				c0,0.3,0.1,0.6,0.1,0.7c0,0.2,0.1,0.6,0.2,0.6c0,0,0.1,0.1,0.1,0.1s0,0.1,0.1,0.1c0.4,0.5,1,0.6,1.4,0.6c0.2,0,0.5,0,0.7-0.1
				c0.5-0.1,1.1-0.2,1.4-0.5c0.1-0.1,0.2-0.1,0.3-0.1c0,0,0.5-0.3,0.8-0.4c0.3-0.1,0.5-0.3,0.8-0.5c0.1-0.1,0.4-0.2,0.4-0.3
				c0-0.1,0.2-0.1,0.4-0.2c0.2-0.2,0.4-0.5,0.5-0.6c0.1,0,0.5-0.4,0.8-0.6c0.1-0.1,0.3-0.2,0.4-0.2c0.1,0,0.1,0,0.1,0.1
				c0,0.1-0.1,0.2-0.3,0.4c0,0-1.6,1.6-2.8,2.3l-1,0.6c-0.4,0.2-1.4,0.7-1.5,0.7c-0.3,0-0.3,0.2-0.7,0.2c-0.1,0-0.1,0-0.2,0h-0.3
				c0,0-0.4,0.1-0.9,0.1c-0.2,0-0.6,0-0.9-0.1c-1-0.3-1.6-1-1.7-3.1c0-0.6,0.3-1.2,0.5-1.6c-0.3,0.1-0.8,0.8-0.9,0.8
				c-0.1,0-0.2,0-0.2-0.1c0,0,0-0.2,0.1-0.3c0.6-0.6,1.2-1.4,1.6-1.7c0.2,0,0.1-0.1,0.2-0.4l0.4-0.4l0.3-0.5c0.6-0.6,1-0.8,1.1-0.9
				c0.7-0.8,1.7-1.4,1.8-1.4c0.1,0,0.8-0.6,0.9-0.6c0.1,0,0.7-0.5,0.8-0.5c0.1,0,0.2-0.2,0.8-0.2c0,0,0.2,0,0.2,0c0.1,0,0.2,0,0.2,0
				h0.2c0.2,0,0.6,0.4,0.6,0.4s0.1,0,0.1,0c0.2,0,0.8,0.4,0.8,0.6l0.1,0.3c0,0,0,0.1,0,0.2c0,0.2,0,0.5,0,0.4c0,0.1,0,0.2,0,0.3
				c0,0.1,0,0.2,0,0.3c0,0.1-0.1,0.3-0.3,0.5c0,0-0.3,0.2-0.3,0.3c0,0.1-0.2,0.2-0.6,0.5l-0.4,0.2c-0.2,0.1-0.8,0.4-0.9,0.5
				c-0.2,0-0.2,0-0.2,0s-0.5,0.4-1.6,0.8c0,0-0.2,0-0.3,0s-0.4,0.2-0.5,0.2c-0.1,0-0.3,0.1-0.3,0.1s-0.1,0.1-0.2,0.1
				c-0.2,0.2-1.2,0.5-1.3,0.5C608.8,142,608.7,142,608.7,142z"/>
			<path class="st3" d="M629.6,143.1c-0.1,0-0.2,0.2-0.3,0.3c0,0-0.1,0.1-0.1,0.1c-0.1,0-0.1,0-0.1,0.1c0,0.2-1,1-1.8,1.7
				c-0.6,0.5-1.8,1.2-2.6,1.3c-0.1,0-0.3,0-0.5,0c-0.2,0-0.6,0-0.8-0.2c-0.4-0.2-0.5-0.7-0.5-1.1c0-0.4,0.1-0.9,0.1-1
				c-0.1,0.1-0.8,1-1,1c-0.3,0-1,0.7-1.1,0.8c-0.6,0.5-1.5,0.7-1.6,0.8c-0.2,0.1-0.6,0.1-1.2,0.1c-0.1,0-0.1,0-0.2,0
				c-1-0.2-1.7-0.8-1.7-1.8v-0.2c0.1-0.4,0.1-0.9,0.1-0.9c0,0,0.2-1,1-2.2c-0.4,0.4-1,1.1-1.3,1.1c0,0-0.1,0-0.1-0.1
				c0-0.1,0-0.2,0.1-0.3c1.3-1.1,1.6-1.6,1.6-1.6l0.5-0.5c0-0.1,0.3-0.4,0.4-0.5c0.1-0.1,2.1-2.2,3-2.6c0.8-0.5,1.7-1.4,2.1-1.4h0.3
				c0.1,0,0.1-0.1,0.3-0.1c0,0,0.2-0.1,0.2-0.1c0,0,0.3-0.1,0.6-0.1c0.5,0,1.2,0.1,1.4,0.5c0.1,0.2,0.6,0.1,0.6,1
				c0,0.1,0.1,0.4,0.1,0.6c0-0.2,1.1-1.7,1.1-1.7c0-0.2,0.3-0.6,0.4-0.8l1.2-1.9c0.4-0.7,1.5-2.6,1.7-2.6c0.2,0,0.5-1,0.6-1.1
				l0.9-1.4c0.1-0.1,2.3-3.7,2.7-4.5c0.1-0.1,0.1-0.1,0.1-0.2c0.1-0.3,0.3-0.5,0.3-0.6c0-0.2,0.1-0.2,0.2-0.3c0,0,0.2-0.5,0.3-0.7
				c0,0,0.2-0.1,0.2-0.2v-0.2c0-0.1,0-0.1,0-0.2c0.2-0.4,0.4-0.5,0.5-0.5c0.1,0,0.1,0,0.1,0c0-0.1,0.2-0.2,0.4-0.2
				c0.1,0,0.2,0,0.3,0.1c0.1,0,0.5-0.4,0.9-0.4c0.1,0,0.3,0,0.4,0.3c0,0-0.9,1.1-0.9,1.5c0,0.4-0.1,0.3-0.3,0.4
				c-0.2,0.1-1.1,2-1.1,2c-0.4,0.1-0.5,0.9-0.7,0.9c-0.3,0.1-0.4,0.9-0.6,0.9c-0.2,0.1-0.3,0.4-0.4,0.7c-0.9,1.5-1.7,2.6-3.1,5.3
				c-0.1,0.2-2,3.3-2.9,4.5c-0.1,0.2-0.1,0.2-0.4,0.7c0,0.1,0,0.3-0.2,0.4c-0.1,0,0,0.2-0.1,0.3s-0.3,0.3-0.3,0.5
				c-0.2,0-0.6,1-2.1,3.2c-0.1,0.1-0.3,0.7-0.5,0.7c-0.2,0.1-0.5,1.1-0.8,1.2c-0.2,0.1,0,0.2-0.2,0.5c-0.1,0.2-0.3,0.5-0.3,0.8
				c0,0.1,0,0.4,0,0.6c0,0.3,0.3,0.4,0.5,0.4c0.1,0,0.2,0,0.3,0c1-0.3,2.1-1.3,2.4-1.4c0,0,0.8-0.5,1.2-1c0,0,0.1-0.1,0.2-0.2
				c0.2-0.1,0.2-0.2,0.3-0.3c0-0.1,0.3-0.3,0.4-0.3c0.1,0,0.1,0.1,0.1,0.2c0,0.1-0.1,0.2-0.3,0.3C629.7,143,629.7,143.1,629.6,143.1
				z M625.5,140l0.1-0.3c-0.1,0-0.3-0.2-0.3-0.6c0-0.2-0.1-0.3-0.1-0.4v-0.2c0-0.5,0.1-0.6,0.1-0.6c0.3-0.2,0.3-0.4,0.3-0.4
				c0,0,0-0.1,0.1-0.4c0,0,0-0.2,0-0.4c0-0.1,0-0.2,0-0.3c0-0.2-0.4-0.4-0.7-0.4c-0.8,0-3.1,0.8-4.3,2.9c-0.1,0.2-0.5,0.9-0.9,1.2
				c-0.2,0.1-0.3,0.7-0.6,0.8c-0.1,0,0,0.1-0.1,0.2c-0.2,0.2-0.1,0.3-0.2,0.4c-0.2,0.3-1,2-1,2.4c0,0,0,0.6,0,0.8
				c0,0.3,0.1,0.7,0.7,0.8c0.1,0,0.1,0.1,0.4,0.1c2.8-0.1,5-3.7,5.1-3.9C624.5,141.4,625.4,140.3,625.5,140z"/>
			<path class="st3" d="M637.4,142.2c0.2,0,0.3,0,0.3,0.1c0,0.1-0.1,0.3-0.5,0.3c-0.1,0-0.3,0.1-0.5,0.3c0-0.1,0,0,0-0.2
				C636.7,142.7,637,142.2,637.4,142.2z M641.1,139.5l0.2-0.3c0.3-0.1,0.7-0.4,0.7-0.5c0.1-0.1,1.8-1.3,2.4-2.1
				c1.8-1.6,2.7-2.5,3.7-3.9c0.2-0.1,1.3-1.8,1.3-1.9c0,0,0.3-0.5,0.3-0.6c0.1-0.1,0.2-0.3,0.3-0.3c0,0,0.1,0,0.1-0.2
				c0,0,0-0.1,0-0.1c0,0,0.2-0.1,0.2-0.4V129c0-0.1,0-0.2,0-0.2c0,0,0.3-0.5,0.3-0.5c0-0.1,0.2-0.3,0.2-0.4v-0.3
				c0-0.1,0-0.2,0.1-0.2s1.3-0.8,1.7-0.8c0.1,0,0.5,0.2,0.5,0.3c0,0-0.1,0.1-0.1,0.1c0.1,0,0.2,0.1,0.2,0.1l0,0.3c0,0,0,0.1,0.1,0.2
				c0,0,0,0.1,0,0.2c0,0.3-0.3,1-0.9,1.6c-0.8,0.5-1.3,1.9-1.5,1.8c0,0-0.8,1.2-0.8,1.3c0,0.2-0.6,0.8-0.6,0.9l-4,7.1
				c0,0-0.3,0.3-0.3,0.4c0,0.2-0.1,0.3-0.3,0.6c0,0.1-0.1,0.5-0.2,0.6c-0.2,0.2-0.2,0.4-0.3,0.6c-0.1,0.2-0.5,0.7-0.6,0.8
				c-0.1,0-0.3,0.7-0.6,1.4c0,0.1,0,0.3-0.1,0.3c-0.2,0.1-0.5,1.2-1.1,1.2c-0.1,0-0.1,0.1-0.1,0.2c-0.1,0.1-1,0.1-1.1,0.1
				c0,0-0.1,0-0.2,0c-0.4,0-0.4-0.7-0.4-1c0-0.1,0-0.2,0.1-0.3c0.3-0.3,0.2-0.7,0.8-1.1c0.1-0.1,0.3-0.5,0.4-0.5
				c0,0,0.6-0.8,0.8-0.8c0-0.3,0.4-0.7,0.6-1.3c0-0.1,0.3-0.2,0.3-0.2c0,0,0.1-0.3,0.1-0.3c0-0.3,0.6-0.5,0.7-0.8
				c0-0.2,0.3-0.7,0.6-1c0-0.1,1-1.4,1.4-2l2.3-3.6c-1.7,1.8-3.8,3.7-5.9,5.6c-1.1,1-1.2,0.8-2,1.4l-1.5,1.1
				c-0.1,0.1-0.5,0.2-0.8,0.2c-0.1,0-0.2,0-0.2,0c0-0.3,1.2-0.8,1.2-0.8C638.8,140.9,641,139.6,641.1,139.5z"/>
			<path class="st3" d="M663.7,137.9c0-0.1,0-0.1,0.1-0.2c0-0.1,0.8-1.7,0.8-1.7s-1.8,3-5.8,3.2h-0.4c-0.3,0-0.6,0-1.1-0.2
				c-1-0.2-2.2-0.8-2.8-2.6c0-0.1-0.1-0.4-0.1-1l0.1-1c0-0.1,0.1-0.2,0.1-0.2c0,0,0-0.1,0-0.2l0.2-0.4c0-0.1,0-0.1,0-0.2
				c0-0.4,0.2-0.9,0.3-1c1.1-2.7,3.9-4.5,4.9-5.1c0,0,0.7-0.3,0.7-0.3c0.3,0,0.2-0.3,1.5-0.3h0.2c0.2,0,0.1-0.1,0.3-0.1h0.7
				c1.3,0,1.6,0.2,1.6,0.3c0.1,0.1,0.4,0.3,0.5,0.3c1,0,1.7,1.5,1.7,1.8c0,0.1,0.1,0.2,0.1,0.2c0,0,0.3,0.4,0.3,0.9v0.3
				c0,0.1,0.1,0.3,0.1,0.5c0,0,0,0.1,0,0.2c0,0.1,0,0.2,0,0.4v0.4l0,0.2c0,0.5-0.1,1.4-0.2,1.7c-0.1,0.8-0.4,1.8-1.4,4.1
				c0,0.1-0.1,0.1-0.2,0.2l-0.2,0.6c-0.1,0.2-0.4,0.7-0.4,0.8c0,0.3-0.4,0.8-0.7,1.5c-0.1,0.3-0.7,1.2-1.3,2
				c-0.8,1.5-3.1,4.3-4.3,5.8c0,0.1-2.6,2.8-2.8,2.7c0,0,0,0.2-0.1,0.2c-0.2,0-0.2,0.3-0.4,0.3c-0.1,0-1,0.9-1.2,1
				c0,0-0.1,0.1-0.2,0.1c-0.2,0-0.6,0.7-0.9,0.7c-0.1,0-1.4,1-1.7,1c0,0-0.1,0.1-0.2,0.1c0,0-0.1,0-0.2,0.1
				c-0.6,0.5-1.7,0.8-1.7,0.8c-0.2,0-1.3,0.8-1.5,0.8c-0.3,0-2,0.6-2.2,0.6c0,0-1,0.3-2.4,0.3c-0.8,0-1.7,0-2.6-0.2
				c-0.9-0.2-1.8-0.6-2.4-1.2h-0.2c0,0-0.1-0.3-0.2-0.3c-0.1,0-0.7-0.8-0.7-1.1c0-0.1-0.1-0.3-0.2-0.5c-0.1-0.2,0-0.5-0.1-0.6
				c-0.1-0.3-0.2-0.6-0.2-1v-0.2c0-0.8,0.2-1.7,0.6-2.2c0-0.1,0.2-0.4,0.3-0.4c0,0,0.3,0.1,0.3,0.6c0,0.4-0.5,1.1-0.5,1.2
				c0,0.2-0.2,0.3-0.2,0.3l0.1,0.1c0,0-0.1,0.3-0.1,0.8c0,0.6,0.2,1.5,1.1,2.4c0.2,0,0.6,0.6,0.8,0.7c0.1,0,0.8,0.3,1,0.4
				c0.2,0.1,0.5,0.2,0.8,0.2l0.4,0.1c0.1,0,0.3,0,0.5,0c0.1,0,0.3,0,0.5,0h1.3c4.2-0.2,7.3-2.9,8.8-3.9c0.8-0.5,3.7-3.2,4.2-3.9
				c0-0.1,0.1-0.3,0.3-0.4c0.1-0.1,0.2-0.3,0.2-0.3c0,0,0.3-0.3,0.5-0.4c0.1-0.2,0.3-0.5,0.7-0.8c0,0,0-0.1,0-0.1l1.5-1.8
				c0-0.1,0-0.1,0-0.2c0.2-0.3,0.4-0.6,0.6-0.7c0.2,0,0.4-0.8,0.7-0.9c0,0,0.1-0.1,0.1-0.1l0.1-0.2c0.1-0.1,0.4-0.8,0.9-1.4
				c0.8-1.3,1.2-2.5,1.3-2.6C663.3,138.9,663.7,138,663.7,137.9z M665.6,131.9v-0.5c0,0,0,0,0-0.1c0-0.6-0.2-3.1-1.3-3.6l-0.1-0.1
				c-0.5,0-0.9-0.3-1.9-0.3c-0.4,0-0.7,0.1-1.2,0.3c-1.6,0.8-3,2.1-4.2,4.8c-0.1,0.2-0.4,0.8-0.4,1v0.3c-0.1,0.2-0.1,0.3-0.1,0.5
				c0,0.2,0,0.5-0.1,0.7c0,0,0,0.1,0,0.2c0,0.2,0.1,0.3,0.1,0.5c0,0.7,0.1,1.1,0.3,1.2c0.1,0,0.2,0.4,0.3,0.5
				c0.5,0.6,1.2,0.8,1.7,0.8h0.3l0.4,0.1c0.1,0,0.3,0,0.4,0c0.3,0,0.6-0.1,0.8-0.1c2.5,0,4.4-3.2,4.3-3.3c0,0,0.2-0.4,0.4-1.2
				c0,0,0-0.5,0.1-0.8c0,0,0.1-0.5,0.1-0.6C665.6,132.1,665.6,132,665.6,131.9z"/>
			<path class="st3" d="M679.2,137.9c0-0.1,0-0.1,0.1-0.2c0-0.1,0.8-1.7,0.8-1.7s-1.8,3-5.8,3.2h-0.4c-0.3,0-0.6,0-1.1-0.2
				c-1-0.2-2.2-0.8-2.8-2.6c0-0.1-0.1-0.4-0.1-1l0.1-1c0-0.1,0.1-0.2,0.1-0.2c0,0,0-0.1,0-0.2l0.2-0.4c0-0.1,0-0.1,0-0.2
				c0-0.4,0.2-0.9,0.3-1c1.1-2.7,3.9-4.5,4.9-5.1c0,0,0.7-0.3,0.7-0.3c0.3,0,0.2-0.3,1.5-0.3h0.2c0.2,0,0.1-0.1,0.3-0.1h0.7
				c1.3,0,1.6,0.2,1.6,0.3c0.1,0.1,0.4,0.3,0.5,0.3c1,0,1.7,1.5,1.7,1.8c0,0.1,0.1,0.2,0.1,0.2c0,0,0.3,0.4,0.3,0.9v0.3
				c0,0.1,0.1,0.3,0.1,0.5c0,0,0,0.1,0,0.2c0,0.1,0,0.2,0,0.4v0.4l0,0.2c0,0.5-0.1,1.4-0.2,1.7c-0.1,0.8-0.4,1.8-1.4,4.1
				c0,0.1-0.1,0.1-0.2,0.2l-0.2,0.6c-0.1,0.2-0.4,0.7-0.4,0.8c0,0.3-0.4,0.8-0.7,1.5c-0.1,0.3-0.7,1.2-1.3,2
				c-0.8,1.5-3.1,4.3-4.3,5.8c0,0.1-2.6,2.8-2.8,2.7c0,0,0,0.2-0.1,0.2c-0.2,0-0.2,0.3-0.4,0.3c-0.1,0-1,0.9-1.2,1
				c0,0-0.1,0.1-0.2,0.1c-0.2,0-0.6,0.7-0.9,0.7c-0.1,0-1.4,1-1.7,1c0,0-0.1,0.1-0.2,0.1c0,0-0.1,0-0.2,0.1
				c-0.6,0.5-1.7,0.8-1.7,0.8c-0.2,0-1.3,0.8-1.5,0.8c-0.3,0-2,0.6-2.2,0.6c0,0-1,0.3-2.4,0.3c-0.8,0-1.7,0-2.6-0.2
				c-0.9-0.2-1.8-0.6-2.4-1.2h-0.2c0,0-0.1-0.3-0.2-0.3c-0.1,0-0.7-0.8-0.7-1.1c0-0.1-0.1-0.3-0.2-0.5c-0.1-0.2,0-0.5-0.1-0.6
				c-0.1-0.3-0.2-0.6-0.2-1v-0.2c0-0.8,0.2-1.7,0.6-2.2c0-0.1,0.2-0.4,0.3-0.4c0,0,0.3,0.1,0.3,0.6c0,0.4-0.5,1.1-0.5,1.2
				c0,0.2-0.2,0.3-0.2,0.3l0.1,0.1c0,0-0.1,0.3-0.1,0.8c0,0.6,0.2,1.5,1.1,2.4c0.2,0,0.6,0.6,0.8,0.7c0.1,0,0.8,0.3,1,0.4
				c0.2,0.1,0.5,0.2,0.8,0.2l0.4,0.1c0.1,0,0.3,0,0.5,0c0.1,0,0.3,0,0.5,0h1.3c4.2-0.2,7.3-2.9,8.8-3.9c0.8-0.5,3.7-3.2,4.2-3.9
				c0-0.1,0.1-0.3,0.3-0.4c0.1-0.1,0.2-0.3,0.2-0.3c0,0,0.3-0.3,0.5-0.4c0.1-0.2,0.3-0.5,0.7-0.8c0,0,0-0.1,0-0.1l1.5-1.8
				c0-0.1,0-0.1,0-0.2c0.2-0.3,0.4-0.6,0.6-0.7c0.2,0,0.4-0.8,0.7-0.9c0,0,0.1-0.1,0.1-0.1l0.1-0.2c0.1-0.1,0.4-0.8,0.9-1.4
				c0.8-1.3,1.2-2.5,1.3-2.6C678.8,138.9,679.1,138,679.2,137.9z M681,131.9v-0.5c0,0,0,0,0-0.1c0-0.6-0.2-3.1-1.3-3.6l-0.1-0.1
				c-0.5,0-0.9-0.3-1.9-0.3c-0.4,0-0.7,0.1-1.2,0.3c-1.6,0.8-3,2.1-4.2,4.8c-0.1,0.2-0.4,0.8-0.4,1v0.3c-0.1,0.2-0.1,0.3-0.1,0.5
				c0,0.2,0,0.5-0.1,0.7c0,0,0,0.1,0,0.2c0,0.2,0.1,0.3,0.1,0.5c0,0.7,0.1,1.1,0.3,1.2c0.1,0,0.2,0.4,0.3,0.5
				c0.5,0.6,1.2,0.8,1.7,0.8h0.3l0.4,0.1c0.1,0,0.3,0,0.4,0c0.3,0,0.6-0.1,0.8-0.1c2.5,0,4.4-3.2,4.3-3.3c0,0,0.2-0.4,0.4-1.2
				c0,0,0-0.5,0.1-0.8c0,0,0.1-0.5,0.1-0.6C681,132.1,681,132,681,131.9z"/>
			<path class="st3" d="M689.6,136.2c0.3-0.2,0.5-0.5,0.6-0.5c0,0,0.2-0.1,0.2-0.1c1.1-1,2.5-1.4,3.4-1.4l0.2,0
				c0.8,0,1.4,0.4,1.5,0.6c0.1,0,0.2,0,0.2,0c0.8,0.4,0.7,0.6,0.9,0.8c0,0.1,0.3,0.1,0.5,1.5l0.2,0.9c0,0.1,0,0.3,0,0.5v0.5
				c-0.1,0.6-0.2,1.6-1.1,3c-0.2,0.2-0.2,0.7-0.6,0.9c-0.1,0.1-0.1,0.3-0.3,0.4c0,0.1-0.1,0.1-0.1,0.2c-1.4,1.8-3.4,3.2-5.3,3.2
				l-0.3,0c-0.1,0-0.2-0.1-0.4-0.1l-0.7,0.1c-0.2,0-0.4-0.1-0.9-0.2c-1.7-0.2-3-2.4-3.2-3.3c0,0-0.1-0.2-0.1-0.8c0-0.1,0-0.3,0-0.4
				c0-0.4,0.1-0.6,0.1-0.6c0-0.1-0.1-0.3-0.1-0.4c0-0.1,0-0.2,0-0.4v-0.5c0-0.1,0-0.2,0-0.3c0.1-0.4,0.1-1,0.5-2.2
				c1-3.7,3.4-7.2,3.7-7.2c0.1,0,0.3-0.5,0.7-1l1.1-1.4c0,0,0.2-0.2,0.4-0.4c1.2-1.4,3.7-3.8,6.2-5.2l0.6-0.4
				c0.3-0.2,0.5-0.2,0.6-0.2c1.1-0.8,2.9-1.5,3.8-1.6c0,0,0.1,0,0.3-0.1c0-0.1,0.2-0.1,0.4-0.1c0.1,0,0.2,0,0.2,0
				c0.1,0,0.2-0.1,0.2-0.1c0.5,0,0.7-0.2,1.5-0.2h0.5c0.1,0,0.3,0.1,0.3,0.1c0.1,0.1,0.2,0.3,0.2,0.3c0,0.1-0.1,0.2-0.1,0.2
				c-0.1,0-0.3-0.2-0.7-0.2l-0.2-0.1c-0.1,0-0.1,0-0.2,0h-0.2c-1.1,0-3.9,1.1-5.1,2c-0.3,0.1-0.8,0.6-1,0.6c0,0-0.2,0.2-0.8,0.4
				l-0.5,0.4c-1,0.2-0.4,0.5-1,0.8c-0.1,0-0.1,0-0.2,0.2l-0.2,0.3c-0.7,0.5-1.5,1.6-1.8,1.7l-0.6,0.8c-0.4,0.4-0.6,0.8-1,1.3
				c-0.2,0.2-0.5,0.7-0.8,0.9c-0.2,0.3-0.3,0.7-0.8,1c-0.3,0.8-0.5,0.8-0.8,1.3c-0.6,0.8-1,2.3-1.4,2.5c0,0.2-0.2,0.4-0.3,0.7
				c0,0-0.2,0.7-0.3,0.8c-0.1,0.2-0.5,1.3-0.5,1.6c-0.2,0.4-0.3,1.1-0.4,1.4l-0.1,0.8c0,0.2,0,0.4,0,0.6v0.2
				c0.5-1.3,1.6-2.6,2.5-3.6c0,0,0.1-0.1,0.2-0.2L689.6,136.2z M687.2,140.2c-0.3,0.5-0.6,1.3-0.7,2l0,0.2v0.5
				c0,0.1,0.1,0.1,0.1,0.3c0.1,0.1,0.1,0.5,0.3,0.7c0,0.4,0.3,0.8,0.5,1.1c0.4,0.6,1.3,1.2,1.9,1.2c0,0,0.4,0,0.8,0
				c0.3,0,0.8-0.1,1.6-0.6c0.1-0.1,0.6-0.2,0.8-0.6c0.2-0.3,0.3-0.3,0.4-0.4c1.9-1.9,2.3-3.5,2.4-4.9c0,0,0-0.1,0-0.2l-0.1-0.8
				c0-0.1,0-0.2,0-0.2l-0.1-0.7c0-0.2-0.1-0.1-0.1-0.3l0-0.3c-0.3-0.7-0.4-0.8-0.8-1.1c-0.1,0-0.1-0.1-0.3-0.1l-0.2-0.1
				c-0.1,0-0.2-0.1-0.3-0.1s-0.1,0-0.1,0c-0.1,0-0.3,0-0.5,0c-0.1,0-0.1,0-0.4,0c-1.2,0.2-2.1,0.7-3,1.5
				C688.7,138,687.9,138.9,687.2,140.2z"/>
		</g>
		<line class="st4" x1="186.7" y1="135.1" x2="478.9" y2="135.1"/>
		<line class="st4" x1="728" y1="135.1" x2="1020.2" y2="135.1"/>
	</g>
</g>
</svg>
