<?xml version="1.0" encoding="utf-8"?>
<!-- Generator: Adobe Illustrator 21.0.2, SVG Export Plug-In . SVG Version: 6.00 Build 0)  -->
<svg version="1.1" id="Layer_1" xmlns="http://www.w3.org/2000/svg" xmlns:xlink="http://www.w3.org/1999/xlink" x="0px" y="0px"
	 viewBox="0 0 266 220" style="enable-background:new 0 0 266 220;" xml:space="preserve">
<style type="text/css">
	.st0{fill:#FFFFFF;}
</style>
<g>
	<path class="st0" d="M34.4,218.5C13.8,194.8,2.5,164.4,2.5,133C2.5,61,61,2.5,133,2.5S263.5,61,263.5,133
		c0,31.4-11.3,61.8-31.9,85.5H34.4z"/>
	<path d="M133,3c34.7,0,67.4,13.5,91.9,38.1C249.5,65.6,263,98.3,263,133c0,31.2-11.2,61.4-31.6,85H34.6C14.2,194.4,3,164.2,3,133
		c0-34.7,13.5-67.4,38.1-91.9S98.3,3,133,3 M133,2C60.7,2,2,60.7,2,133c0,32.9,12.1,63,32.2,86h197.6c20-23,32.2-53.1,32.2-86
		C264,60.7,205.3,2,133,2L133,2z"/>
</g>
</svg>
