<svg xmlns="http://www.w3.org/2000/svg" viewBox="0 0 158.95 265.58"><defs><style>.cls-1{opacity:0.55;}.cls-2{fill:#a67c52;}.cls-3{fill:#666;}.cls-4{fill:#fff;}.cls-5{fill:none;}.cls-6{fill:#009245;}.cls-7{fill:#8cc63f;}</style></defs><title>services-icon</title><g id="Layer_2" data-name="Layer 2"><g id="Layer_1-2" data-name="Layer 1"><g class="cls-1"><rect class="cls-2" x="67.07" y="48.61" width="14" height="142" transform="translate(-40.98 38.63) rotate(-23.09)"/><path class="cls-3" d="M158.19,223.4l-16.13,36.15A10.5,10.5,0,0,1,129.23,265L92,251.63a8.16,8.16,0,0,1-4.83-4.44L69.16,205c-1.87-4.38.6-9.64,5.51-11.73l53.38-22.76c4.91-2.09,10.41-.24,12.28,4.14l18,42.21A8.16,8.16,0,0,1,158.19,223.4Z"/><rect class="cls-4" x="113.25" y="191.2" width="4" height="50" transform="translate(-75.56 62.52) rotate(-23.09)"/><path class="cls-5" d="M23,36.78l-11.62,5A26.5,26.5,0,0,0,59,21.4L38.86,30Z"/><path class="cls-5" d="M22.63,2.13A26.51,26.51,0,0,0,7,31.61l47.7-20.33A26.51,26.51,0,0,0,22.63,2.13Z"/><path class="cls-6" d="M8.64,36.9a26.61,26.61,0,0,0,2.69,4.83l11.62-5L38.86,30,59,21.4a26.58,26.58,0,0,0-4.31-10.12L7,31.61A26.61,26.61,0,0,0,8.64,36.9Z"/><path class="cls-7" d="M43.41,50.88a26.51,26.51,0,0,1-32.08-9.15l-7,3A34,34,0,0,0,66,18.41l-7,3A26.51,26.51,0,0,1,43.41,50.88Z"/><path class="cls-7" d="M61.73,8.29l-7,3A26.58,26.58,0,0,1,59,21.4l7-3A33.89,33.89,0,0,0,61.73,8.29Z"/><path class="cls-7" d="M8.64,36.9A26.61,26.61,0,0,1,7,31.61l-7,3A33.89,33.89,0,0,0,4.31,44.72l7-3A26.61,26.61,0,0,1,8.64,36.9Z"/></g></g></g></svg>