<svg xmlns="http://www.w3.org/2000/svg" viewBox="0 0 163.31 166.78"><defs><style>.cls-1{fill:#00a99d;}</style></defs><title>signup-icon</title><g id="Layer_2" data-name="Layer 2"><g id="Layer_1-2" data-name="Layer 1"><path class="cls-1" d="M161.71,70,129.36,49.2a3.41,3.41,0,0,0-.8-.31V41.7a3.47,3.47,0,0,0-3.47-3.47h-12.9L85.23,21.38a3.47,3.47,0,0,0-3.68,0l-27,16.84H38.22a3.47,3.47,0,0,0-3.47,3.47v7.19a3.35,3.35,0,0,0-.8.31L1.59,70A3.48,3.48,0,0,0,0,73v90.34a3.47,3.47,0,0,0,3.47,3.48H159.83a3.47,3.47,0,0,0,3.48-3.48V73A3.48,3.48,0,0,0,161.71,70ZM83.39,28.42l15.68,9.8H67.71ZM41.7,45.17h79.92v78.18s0,0,0,0l-11.75,7.14L81.58,115.09a3.48,3.48,0,0,0-3.39,0L52.38,129.87l-10.69-6.49s0,0,0,0ZM7,74.86,34.75,57v62.21L7,102.28Zm0,35.55,38.54,23.4L7,155.83Zm7,49.42,66-37.71,69.14,37.71Zm142.4-4-39.44-21.51,39.44-23.95Zm0-53.59-27.8,16.88V57l27.8,17.91Z"/><path class="cls-1" d="M55.59,79.92H97.29a3.47,3.47,0,0,0,3.47-3.47V55.59a3.47,3.47,0,0,0-3.47-3.47H55.59a3.47,3.47,0,0,0-3.47,3.47V76.44A3.47,3.47,0,0,0,55.59,79.92Zm3.47-20.85H93.81V73H59.07Z"/><rect class="cls-1" x="52.12" y="86.87" width="55.59" height="6.95"/><rect class="cls-1" x="52.12" y="100.76" width="55.59" height="6.95"/><path class="cls-1" d="M145.93,41.7a3.46,3.46,0,0,0,2.46-1L160.67,28.4a3.47,3.47,0,0,0-4.91-4.91L143.48,35.77a3.47,3.47,0,0,0,2.46,5.93Z"/><path class="cls-1" d="M14.92,40.68a3.47,3.47,0,1,0,4.91-4.91L7.55,23.48A3.47,3.47,0,0,0,2.63,28.4Z"/><path class="cls-1" d="M116.85,24.08a3.44,3.44,0,0,0,1.29.25,3.47,3.47,0,0,0,3.23-2.18l6.95-17.37a3.47,3.47,0,1,0-6.45-2.58l-6.95,17.37A3.47,3.47,0,0,0,116.85,24.08Z"/><path class="cls-1" d="M45.42,22.14a3.47,3.47,0,0,0,3.23,2.18,3.43,3.43,0,0,0,1.29-.25,3.48,3.48,0,0,0,1.94-4.52L44.92,2.19a3.47,3.47,0,1,0-6.45,2.58Z"/></g></g></svg>