<svg xmlns="http://www.w3.org/2000/svg" viewBox="0 0 68.86 69.64"><defs><style>.cls-1{fill:#fff;}</style></defs><title>social-Houzz</title><g id="Layer_2" data-name="Layer 2"><g id="Layer_1-2" data-name="Layer 1"><polygon class="cls-1" points="35.21 55.53 46.17 50.74 46.17 36.87 35.21 42.35 35.21 55.53"/><path class="cls-1" d="M35.09,29a.79.79,0,0,1-.35.3L22.6,34.59l11.31,6.69a.81.81,0,0,1,.17-.12l11.7-5.85Z"/><polygon class="cls-1" points="22.69 47.53 32.05 42 22.69 36.46 22.69 47.53"/><polygon class="cls-1" points="33.65 14.18 22.69 19.66 22.69 32.84 33.65 28.05 33.65 14.18"/><path class="cls-1" d="M0,0V69.64H68.86V0ZM47.73,35.09a.79.79,0,0,1,0,.26.78.78,0,0,1,0,.26V51.25a.78.78,0,0,1-.47.72L34.74,57.45a.77.77,0,0,1-.31.07.78.78,0,0,1-.78-.78V42.87L22.31,49.58a.78.78,0,0,1-1.18-.67V35.09a.78.78,0,0,1,.21-.52.78.78,0,0,1-.21-.53V19.17a.78.78,0,0,1,.43-.7l12.52-6.26a.78.78,0,0,1,1.13.7v14.4l11.34-6.71a.78.78,0,0,1,1.18.67Z"/><polygon class="cls-1" points="46.17 33.72 46.17 22.65 36.81 28.19 46.17 33.72"/></g></g></svg>