<svg xmlns="http://www.w3.org/2000/svg" viewBox="0 0 72.56 72.56"><defs><style>.cls-1{fill:#fff;}</style></defs><title>social-pinterest</title><g id="Layer_2" data-name="Layer 2"><g id="Layer_1-2" data-name="Layer 1"><path class="cls-1" d="M0,0V72.56H72.56V0ZM61.27,46A26.59,26.59,0,0,1,28.91,62c.85-2.11,1.83-4.19,2.54-6.36s1.17-4.44,1.71-6.53c.46.39.93.8,1.41,1.18,2.53,2,5.38,2.19,8.38,1.47a12.64,12.64,0,0,0,7.56-5.22A20.25,20.25,0,0,0,54,31.67a14,14,0,0,0-9.18-11.53c-7.72-3-15-2-21.38,3.54a15.52,15.52,0,0,0-4.17,17.15,8.07,8.07,0,0,0,4,4.41c1,.47,1.4.28,1.69-.75,0-.08,0-.15.07-.23a3.9,3.9,0,0,0-.55-4c-1.77-2.53-1.45-5.46-.6-8.27a12.5,12.5,0,0,1,12-8.93,18.35,18.35,0,0,1,4.48.47,9.34,9.34,0,0,1,7.37,8.8,20.42,20.42,0,0,1-1.87,10.22,9.68,9.68,0,0,1-3.27,4,5.5,5.5,0,0,1-4.61.89,4,4,0,0,1-3-5c.6-2.39,1.38-4.73,2-7.12a9.43,9.43,0,0,0,.28-3.14,3.48,3.48,0,0,0-5.4-2.74,6.12,6.12,0,0,0-3,4.41,10.64,10.64,0,0,0,.42,5.64,2.35,2.35,0,0,1,.06,1.22c-1.12,4.9-2.33,9.79-3.39,14.71a31.32,31.32,0,0,0-.36,4.43c0,.28,0,.57,0,.95A26.81,26.81,0,1,1,61.27,46Z"/></g></g></svg>