<svg xmlns="http://www.w3.org/2000/svg" viewBox="0 0 70.42 70.42"><defs><style>.cls-1{fill:#fff;}</style></defs><title>social-instagram</title><g id="Layer_2" data-name="Layer 2"><g id="Layer_1-2" data-name="Layer 1"><path class="cls-1" d="M35.21,28.21a7,7,0,1,0,7,7A7,7,0,0,0,35.21,28.21Zm0,0a7,7,0,1,0,7,7A7,7,0,0,0,35.21,28.21ZM46.88,16.79H23.55a6.76,6.76,0,0,0-6.75,6.75V46.88a6.76,6.76,0,0,0,6.75,6.75H46.88a6.76,6.76,0,0,0,6.75-6.75V23.55A6.76,6.76,0,0,0,46.88,16.79ZM35.21,47.34A12.13,12.13,0,1,1,47.34,35.21,12.14,12.14,0,0,1,35.21,47.34ZM47.73,25.59a2.87,2.87,0,1,1,2.87-2.87A2.87,2.87,0,0,1,47.73,25.59ZM35.21,28.21a7,7,0,1,0,7,7A7,7,0,0,0,35.21,28.21ZM46.88,16.79H23.55a6.76,6.76,0,0,0-6.75,6.75V46.88a6.76,6.76,0,0,0,6.75,6.75H46.88a6.76,6.76,0,0,0,6.75-6.75V23.55A6.76,6.76,0,0,0,46.88,16.79ZM35.21,47.34A12.13,12.13,0,1,1,47.34,35.21,12.14,12.14,0,0,1,35.21,47.34ZM47.73,25.59a2.87,2.87,0,1,1,2.87-2.87A2.87,2.87,0,0,1,47.73,25.59ZM35.21,28.21a7,7,0,1,0,7,7A7,7,0,0,0,35.21,28.21ZM0,0V70.42H70.42V0ZM58.76,46.88A11.89,11.89,0,0,1,46.88,58.76H23.55A11.89,11.89,0,0,1,11.67,46.88V23.55A11.89,11.89,0,0,1,23.55,11.67H46.88A11.89,11.89,0,0,1,58.76,23.55V46.88ZM46.88,16.79H23.55a6.76,6.76,0,0,0-6.75,6.75V46.88a6.76,6.76,0,0,0,6.75,6.75H46.88a6.76,6.76,0,0,0,6.75-6.75V23.55A6.76,6.76,0,0,0,46.88,16.79ZM35.21,47.34A12.13,12.13,0,1,1,47.34,35.21,12.14,12.14,0,0,1,35.21,47.34ZM47.73,25.59a2.87,2.87,0,1,1,2.87-2.87A2.87,2.87,0,0,1,47.73,25.59ZM35.21,28.21a7,7,0,1,0,7,7A7,7,0,0,0,35.21,28.21Zm0,0a7,7,0,1,0,7,7A7,7,0,0,0,35.21,28.21Zm0,0a7,7,0,1,0,7,7A7,7,0,0,0,35.21,28.21ZM46.88,16.79H23.55a6.76,6.76,0,0,0-6.75,6.75V46.88a6.76,6.76,0,0,0,6.75,6.75H46.88a6.76,6.76,0,0,0,6.75-6.75V23.55A6.76,6.76,0,0,0,46.88,16.79ZM35.21,47.34A12.13,12.13,0,1,1,47.34,35.21,12.14,12.14,0,0,1,35.21,47.34ZM47.73,25.59a2.87,2.87,0,1,1,2.87-2.87A2.87,2.87,0,0,1,47.73,25.59ZM35.21,28.21a7,7,0,1,0,7,7A7,7,0,0,0,35.21,28.21Zm0,0a7,7,0,1,0,7,7A7,7,0,0,0,35.21,28.21Zm0,0a7,7,0,1,0,7,7A7,7,0,0,0,35.21,28.21ZM46.88,16.79H23.55a6.76,6.76,0,0,0-6.75,6.75V46.88a6.76,6.76,0,0,0,6.75,6.75H46.88a6.76,6.76,0,0,0,6.75-6.75V23.55A6.76,6.76,0,0,0,46.88,16.79ZM35.21,47.34A12.13,12.13,0,1,1,47.34,35.21,12.14,12.14,0,0,1,35.21,47.34ZM47.73,25.59a2.87,2.87,0,1,1,2.87-2.87A2.87,2.87,0,0,1,47.73,25.59ZM35.21,28.21a7,7,0,1,0,7,7A7,7,0,0,0,35.21,28.21Z"/></g></g></svg>