<svg xmlns="http://www.w3.org/2000/svg" viewBox="0 0 71.21 71.21"><defs><style>.cls-1{fill:#fff;}</style></defs><title>social-twitter</title><g id="Layer_2" data-name="Layer 2"><g id="Layer_1-2" data-name="Layer 1"><path class="cls-1" d="M0,0V71.21H71.21V0ZM56.45,25.62q0,.63,0,1.26a30.66,30.66,0,0,1-47,25.91h0a20.66,20.66,0,0,0,15.79-4.51c-8.25-.64-9.89-7.51-9.89-7.51a9.84,9.84,0,0,0,4.74-.2c-9.29-2.17-8.5-10.68-8.5-10.68a11.05,11.05,0,0,0,4.65,1.39C8,24.05,13.16,17,13.16,17c8.6,10.42,21.25,11.13,22.08,11.16a10.76,10.76,0,0,1,18.33-9.78c.54-.15,1.07-.32,1.58-.48a37.35,37.35,0,0,0,5.22-2.18c-.52,3.14-4.4,5.78-4.68,6h0a24.86,24.86,0,0,0,6.09-1.58C60.85,22.1,57.06,25.13,56.45,25.62Z"/></g></g></svg>